<svg width="391" height="174" viewBox="0 0 391 174" fill="none" xmlns="http://www.w3.org/2000/svg">
<path d="M83.337 138.065H77.2163C76.8543 136.305 76.2209 134.758 75.3159 133.426C74.4274 132.093 73.3415 130.974 72.0581 130.069C70.7912 129.148 69.3844 128.457 67.8378 127.996C66.2912 127.535 64.6787 127.305 63.0005 127.305C59.9401 127.305 57.1677 128.078 54.6832 129.625C52.2152 131.171 50.249 133.45 48.7846 136.461C47.3367 139.472 46.6128 143.166 46.6128 147.543C46.6128 151.919 47.3367 155.613 48.7846 158.624C50.249 161.635 52.2152 163.914 54.6832 165.461C57.1677 167.007 59.9401 167.78 63.0005 167.78C64.6787 167.78 66.2912 167.55 67.8378 167.089C69.3844 166.629 70.7912 165.946 72.0581 165.041C73.3415 164.12 74.4274 162.993 75.3159 161.66C76.2209 160.311 76.8543 158.764 77.2163 157.02H83.337C82.8763 159.603 82.0372 161.915 80.8196 163.955C79.6021 165.995 78.0883 167.731 76.2784 169.163C74.4686 170.578 72.4366 171.655 70.1824 172.396C67.9447 173.136 65.5508 173.506 63.0005 173.506C58.6896 173.506 54.856 172.453 51.4995 170.347C48.143 168.241 45.5022 165.247 43.5771 161.364C41.652 157.481 40.6895 152.874 40.6895 147.543C40.6895 142.212 41.652 137.605 43.5771 133.722C45.5022 129.839 48.143 126.844 51.4995 124.738C54.856 122.632 58.6896 121.579 63.0005 121.579C65.5508 121.579 67.9447 121.949 70.1824 122.69C72.4366 123.43 74.4686 124.516 76.2784 125.947C78.0883 127.362 79.6021 129.09 80.8196 131.13C82.0372 133.154 82.8763 135.466 83.337 138.065Z" fill="#D6DFEC"/>
<path d="M107.838 173.605C104.416 173.605 101.413 172.791 98.83 171.162C96.2633 169.533 94.256 167.254 92.808 164.325C91.3766 161.397 90.6609 157.974 90.6609 154.058C90.6609 150.109 91.3766 146.662 92.808 143.717C94.256 140.772 96.2633 138.485 98.83 136.856C101.413 135.227 104.416 134.413 107.838 134.413C111.261 134.413 114.255 135.227 116.822 136.856C119.405 138.485 121.412 140.772 122.844 143.717C124.292 146.662 125.016 150.109 125.016 154.058C125.016 157.974 124.292 161.397 122.844 164.325C121.412 167.254 119.405 169.533 116.822 171.162C114.255 172.791 111.261 173.605 107.838 173.605ZM107.838 168.373C110.438 168.373 112.577 167.706 114.255 166.374C115.933 165.041 117.176 163.289 117.982 161.117C118.788 158.945 119.191 156.592 119.191 154.058C119.191 151.524 118.788 149.163 117.982 146.975C117.176 144.787 115.933 143.018 114.255 141.669C112.577 140.32 110.438 139.645 107.838 139.645C105.239 139.645 103.1 140.32 101.421 141.669C99.7432 143.018 98.501 144.787 97.6947 146.975C96.8885 149.163 96.4854 151.524 96.4854 154.058C96.4854 156.592 96.8885 158.945 97.6947 161.117C98.501 163.289 99.7432 165.041 101.421 166.374C103.1 167.706 105.239 168.373 107.838 168.373Z" fill="#D6DFEC"/>
<path d="M139.731 122.27V172.815H133.907V122.27H139.731Z" fill="#D6DFEC"/>
<path d="M156.224 122.27V172.815H150.399V122.27H156.224Z" fill="#D6DFEC"/>
<path d="M182.786 173.605C179.133 173.605 175.983 172.799 173.334 171.186C170.701 169.557 168.669 167.287 167.238 164.375C165.823 161.446 165.115 158.04 165.115 154.157C165.115 150.274 165.823 146.852 167.238 143.89C168.669 140.912 170.66 138.592 173.21 136.93C175.777 135.252 178.771 134.413 182.194 134.413C184.168 134.413 186.118 134.742 188.043 135.4C189.968 136.058 191.72 137.128 193.3 138.608C194.879 140.073 196.138 142.014 197.076 144.433C198.014 146.852 198.483 149.83 198.483 153.367V155.835H169.261V150.8H192.559C192.559 148.662 192.132 146.753 191.276 145.075C190.437 143.396 189.236 142.072 187.673 141.101C186.126 140.13 184.3 139.645 182.194 139.645C179.874 139.645 177.866 140.221 176.172 141.373C174.494 142.508 173.202 143.989 172.297 145.815C171.392 147.641 170.94 149.599 170.94 151.689V155.045C170.94 157.908 171.433 160.335 172.42 162.326C173.424 164.301 174.814 165.806 176.591 166.843C178.368 167.863 180.433 168.373 182.786 168.373C184.316 168.373 185.698 168.159 186.932 167.731C188.183 167.287 189.261 166.629 190.165 165.757C191.07 164.868 191.77 163.766 192.263 162.45L197.89 164.029C197.298 165.938 196.303 167.616 194.904 169.064C193.506 170.495 191.778 171.614 189.721 172.42C187.665 173.21 185.353 173.605 182.786 173.605Z" fill="#D6DFEC"/>
<path d="M222.743 173.605C219.189 173.605 216.129 172.766 213.562 171.088C210.996 169.409 209.021 167.098 207.639 164.152C206.257 161.207 205.566 157.843 205.566 154.058C205.566 150.208 206.273 146.81 207.688 143.865C209.12 140.904 211.111 138.592 213.661 136.93C216.228 135.252 219.222 134.413 222.645 134.413C225.31 134.413 227.712 134.906 229.851 135.894C231.99 136.881 233.743 138.263 235.108 140.04C236.474 141.817 237.321 143.89 237.65 146.259H231.826C231.382 144.532 230.394 143.001 228.864 141.669C227.35 140.32 225.31 139.645 222.743 139.645C220.473 139.645 218.482 140.237 216.771 141.422C215.076 142.59 213.752 144.244 212.797 146.383C211.859 148.505 211.39 150.998 211.39 153.861C211.39 156.79 211.851 159.34 212.773 161.512C213.71 163.684 215.027 165.37 216.721 166.571C218.433 167.772 220.44 168.373 222.743 168.373C224.257 168.373 225.631 168.11 226.865 167.583C228.099 167.057 229.144 166.3 229.999 165.312C230.855 164.325 231.464 163.141 231.826 161.758H237.65C237.321 163.996 236.507 166.012 235.207 167.805C233.924 169.582 232.221 170.997 230.098 172.05C227.992 173.087 225.541 173.605 222.743 173.605Z" fill="#D6DFEC"/>
<path d="M262.651 134.906V139.842H243.006V134.906H262.651ZM248.732 125.824H254.556V161.956C254.556 163.601 254.795 164.835 255.272 165.658C255.766 166.464 256.391 167.007 257.148 167.287C257.921 167.55 258.735 167.682 259.591 167.682C260.233 167.682 260.759 167.649 261.171 167.583C261.582 167.501 261.911 167.435 262.158 167.386L263.342 172.618C262.948 172.766 262.396 172.914 261.689 173.062C260.981 173.227 260.085 173.309 258.999 173.309C257.353 173.309 255.741 172.955 254.161 172.248C252.598 171.54 251.298 170.462 250.262 169.014C249.242 167.567 248.732 165.74 248.732 163.535V125.824Z" fill="#D6DFEC"/>
<path d="M271.413 172.815V134.906H277.237V172.815H271.413ZM274.375 128.588C273.239 128.588 272.26 128.202 271.438 127.428C270.631 126.655 270.228 125.725 270.228 124.639C270.228 123.553 270.631 122.624 271.438 121.851C272.26 121.077 273.239 120.691 274.375 120.691C275.51 120.691 276.481 121.077 277.287 121.851C278.109 122.624 278.521 123.553 278.521 124.639C278.521 125.725 278.109 126.655 277.287 127.428C276.481 128.202 275.51 128.588 274.375 128.588Z" fill="#D6DFEC"/>
<path d="M318.904 134.906L304.885 172.815H298.962L284.944 134.906H291.262L301.726 165.115H302.121L312.586 134.906H318.904Z" fill="#D6DFEC"/>
<path d="M341.128 173.605C337.476 173.605 334.325 172.799 331.676 171.186C329.043 169.557 327.011 167.287 325.58 164.375C324.165 161.446 323.457 158.04 323.457 154.157C323.457 150.274 324.165 146.852 325.58 143.89C327.011 140.912 329.002 138.592 331.552 136.93C334.119 135.252 337.114 134.413 340.536 134.413C342.511 134.413 344.46 134.742 346.385 135.4C348.31 136.058 350.063 137.128 351.642 138.608C353.222 140.073 354.48 142.014 355.418 144.433C356.356 146.852 356.825 149.83 356.825 153.367V155.835H327.604V150.8H350.902C350.902 148.662 350.474 146.753 349.618 145.075C348.779 143.396 347.578 142.072 346.015 141.101C344.468 140.13 342.642 139.645 340.536 139.645C338.216 139.645 336.209 140.221 334.514 141.373C332.836 142.508 331.544 143.989 330.639 145.815C329.734 147.641 329.282 149.599 329.282 151.689V155.045C329.282 157.908 329.776 160.335 330.763 162.326C331.766 164.301 333.157 165.806 334.934 166.843C336.711 167.863 338.776 168.373 341.128 168.373C342.659 168.373 344.041 168.159 345.275 167.731C346.525 167.287 347.603 166.629 348.508 165.757C349.413 164.868 350.112 163.766 350.606 162.45L356.233 164.029C355.64 165.938 354.645 167.616 353.246 169.064C351.848 170.495 350.12 171.614 348.064 172.42C346.007 173.21 343.695 173.605 341.128 173.605Z" fill="#D6DFEC"/>
<path d="M28.2095 81.2597C22.3603 81.2597 17.3255 80.0751 13.1052 77.7058C8.90957 75.3118 5.67646 71.9306 3.40587 67.5622C1.13529 63.1691 0 57.9739 0 51.9766C0 46.1274 1.13529 40.9939 3.40587 36.5761C5.67646 32.1584 8.87255 28.7155 12.9942 26.2474C17.1404 23.7794 22.0024 22.5454 27.5802 22.5454C31.3316 22.5454 34.8238 23.1501 38.057 24.3594C41.3147 25.5441 44.153 27.3334 46.5716 29.7274C49.015 32.1214 50.9154 35.1323 52.2728 38.7603C53.6302 42.3637 54.3089 46.584 54.3089 51.4213V55.7527H6.29347V45.9793H39.4637C39.4637 43.7087 38.9701 41.6973 37.9829 39.945C36.9957 38.1927 35.6259 36.8229 33.8736 35.8357C32.146 34.8238 30.1346 34.3179 27.8393 34.3179C25.4453 34.3179 23.3228 34.8732 21.4718 35.9838C19.6455 37.0697 18.214 38.5382 17.1775 40.3892C16.1409 42.2156 15.6103 44.2517 15.5856 46.4976V55.7897C15.5856 58.6033 16.1039 61.0343 17.1404 63.0827C18.2017 65.1312 19.6948 66.7107 21.6199 67.8213C23.545 68.9319 25.8279 69.4873 28.4687 69.4873C30.221 69.4873 31.8252 69.2405 33.2813 68.7469C34.7375 68.2532 35.9838 67.5128 37.0204 66.5256C38.057 65.5384 38.8467 64.3291 39.3897 62.8976L53.9757 63.8602C53.2353 67.3648 51.7175 70.4251 49.4222 73.0412C47.1516 75.6326 44.2147 77.6564 40.6114 79.1126C37.0327 80.544 32.8988 81.2597 28.2095 81.2597Z" fill="#535353"/>
<path d="M64.6006 80.1491V23.2858H80.3712V80.1491H64.6006ZM72.5229 15.9558C70.1783 15.9558 68.1669 15.1784 66.4886 13.6235C64.835 12.044 64.0082 10.1559 64.0082 7.95938C64.0082 5.78752 64.835 3.92416 66.4886 2.36931C68.1669 0.789769 70.1783 0 72.5229 0C74.8676 0 76.8667 0.789769 78.5202 2.36931C80.1985 3.92416 81.0376 5.78752 81.0376 7.95938C81.0376 10.1559 80.1985 12.044 78.5202 13.6235C76.8667 15.1784 74.8676 15.9558 72.5229 15.9558Z" fill="#535353"/>
<path d="M108.775 47.275V80.1491H93.0045V23.2858H108.035V33.3183H108.701C109.96 30.0112 112.07 27.3951 115.032 25.47C117.993 23.5203 121.584 22.5454 125.805 22.5454C129.753 22.5454 133.196 23.4092 136.133 25.1368C139.07 26.8645 141.353 29.3325 142.982 32.5409C144.611 35.7247 145.425 39.5254 145.425 43.9432V80.1491H129.655V46.7567C129.679 43.2768 128.791 40.562 126.989 38.6123C125.188 36.6378 122.707 35.6506 119.548 35.6506C117.426 35.6506 115.55 36.1072 113.921 37.0204C112.317 37.9336 111.058 39.2663 110.145 41.0186C109.256 42.7462 108.8 44.8317 108.775 47.275Z" fill="#535353"/>
<path d="M158.151 80.1491V4.33139H174.181V35.6136H206.722V4.33139H222.715V80.1491H206.722V48.8299H174.181V80.1491H158.151Z" fill="#535353"/>
<path d="M251.85 81.2227C248.222 81.2227 244.989 80.5934 242.15 79.3347C239.312 78.0513 237.066 76.1633 235.413 73.6706C233.784 71.1532 232.969 68.0188 232.969 64.2674C232.969 61.1083 233.549 58.4552 234.709 56.308C235.869 54.1608 237.449 52.4332 239.448 51.1251C241.447 49.8171 243.718 48.8299 246.26 48.1635C248.826 47.4971 251.516 47.0282 254.33 46.7567C257.637 46.4112 260.303 46.0904 262.326 45.7942C264.35 45.4734 265.819 45.0044 266.732 44.3874C267.645 43.7704 268.102 42.8573 268.102 41.6479V41.4258C268.102 39.0812 267.361 37.2672 265.88 35.9838C264.424 34.7004 262.351 34.0587 259.661 34.0587C256.823 34.0587 254.564 34.6881 252.886 35.9468C251.208 37.1808 250.097 38.7357 249.554 40.6114L234.968 39.4267C235.709 35.9715 237.165 32.9852 239.337 30.4678C241.509 27.9257 244.31 25.976 247.74 24.6186C251.196 23.2365 255.194 22.5454 259.735 22.5454C262.894 22.5454 265.917 22.9156 268.805 23.656C271.717 24.3964 274.296 25.5441 276.542 27.0989C278.813 28.6538 280.602 30.6529 281.91 33.0962C283.218 35.5149 283.872 38.4148 283.872 41.796V80.1491H268.916V72.2638H268.472C267.559 74.0408 266.337 75.608 264.807 76.9654C263.277 78.2981 261.438 79.347 259.291 80.1121C257.144 80.8525 254.663 81.2227 251.85 81.2227ZM256.366 70.3387C258.686 70.3387 260.735 69.8821 262.512 68.969C264.288 68.0311 265.683 66.7724 266.695 65.1929C267.707 63.6134 268.213 61.824 268.213 59.8249V53.7906C267.719 54.1115 267.04 54.4076 266.177 54.6791C265.337 54.9259 264.387 55.1604 263.326 55.3825C262.265 55.5799 261.203 55.765 260.142 55.9378C259.081 56.0859 258.118 56.2216 257.255 56.345C255.404 56.6165 253.787 57.0484 252.405 57.6407C251.023 58.2331 249.949 59.0352 249.184 60.0471C248.419 61.0343 248.037 62.2683 248.037 63.7491C248.037 65.8963 248.814 67.5375 250.369 68.6728C251.948 69.7834 253.947 70.3387 256.366 70.3387Z" fill="#535353"/>
<path d="M296.108 80.1491V23.2858H311.397V33.2073H311.989C313.026 29.678 314.766 27.0125 317.209 25.2109C319.652 23.3845 322.466 22.4714 325.65 22.4714C326.44 22.4714 327.291 22.5207 328.204 22.6195C329.117 22.7182 329.919 22.8539 330.611 23.0267V37.0204C329.87 36.7983 328.846 36.6008 327.538 36.4281C326.23 36.2553 325.033 36.1689 323.947 36.1689C321.627 36.1689 319.554 36.6749 317.727 37.6868C315.926 38.674 314.494 40.0561 313.433 41.833C312.396 43.61 311.878 45.6585 311.878 47.9784V80.1491H296.108Z" fill="#535353"/>
<path d="M375.229 55.9378V23.2858H391V80.1491H375.859V69.8204H375.266C373.983 73.1523 371.848 75.8301 368.862 77.8539C365.9 79.8776 362.285 80.8895 358.015 80.8895C354.214 80.8895 350.87 80.0257 347.982 78.2981C345.095 76.5705 342.836 74.1148 341.208 70.9311C339.603 67.7473 338.789 63.9342 338.764 59.4918V23.2858H354.535V56.6782C354.56 60.0347 355.46 62.6878 357.237 64.6376C359.014 66.5873 361.396 67.5622 364.382 67.5622C366.283 67.5622 368.06 67.1303 369.713 66.2665C371.367 65.378 372.7 64.0699 373.711 62.3423C374.748 60.6147 375.254 58.4799 375.229 55.9378Z" fill="#535353"/>
</svg>
