<svg width="123" height="54" viewBox="0 0 123 54" fill="none" xmlns="http://www.w3.org/2000/svg">
<g clip-path="url(#clip0_44_220)">
<path d="M14.5026 42.9455H12.5929C12.4799 42.3979 12.2823 41.9168 11.9999 41.5022C11.7227 41.0877 11.3838 40.7397 10.9834 40.4582C10.5881 40.1716 10.1492 39.9566 9.66662 39.8133C9.18404 39.67 8.68092 39.5984 8.15727 39.5984C7.20238 39.5984 6.33733 39.8389 5.56212 40.32C4.79205 40.8011 4.17856 41.5099 3.72164 42.4465C3.26987 43.3831 3.04398 44.532 3.04398 45.8934C3.04398 47.2547 3.26987 48.4037 3.72164 49.3403C4.17856 50.2768 4.79205 50.9857 5.56212 51.4667C6.33733 51.9478 7.20238 52.1884 8.15727 52.1884C8.68092 52.1884 9.18404 52.1167 9.66662 51.9734C10.1492 51.8301 10.5881 51.6177 10.9834 51.3362C11.3838 51.0496 11.7227 50.6991 11.9999 50.2845C12.2823 49.8649 12.4799 49.3838 12.5929 48.8413H14.5026C14.3589 49.6448 14.0971 50.3638 13.7172 50.9985C13.3373 51.6331 12.865 52.173 12.3002 52.6183C11.7355 53.0584 11.1015 53.3936 10.3982 53.6239C9.69999 53.8542 8.95302 53.9694 8.15727 53.9694C6.81221 53.9694 5.61603 53.6418 4.56873 52.9868C3.52142 52.3317 2.69745 51.4002 2.09679 50.1924C1.49613 48.9846 1.1958 47.5516 1.1958 45.8934C1.1958 44.2352 1.49613 42.8022 2.09679 41.5944C2.69745 40.3865 3.52142 39.4551 4.56873 38.8C5.61603 38.1449 6.81221 37.8174 8.15727 37.8174C8.95302 37.8174 9.69999 37.9325 10.3982 38.1628C11.1015 38.3931 11.7355 38.7309 12.3002 39.1762C12.865 39.6163 13.3373 40.1537 13.7172 40.7883C14.0971 41.4178 14.3589 42.1369 14.5026 42.9455Z" fill="#A7B6CC"/>
<path d="M22.1479 53.9999C21.08 53.9999 20.1431 53.7466 19.3371 53.2399C18.5362 52.7332 17.9099 52.0244 17.4581 51.1134C17.0115 50.2024 16.7881 49.1379 16.7881 47.9199C16.7881 46.6916 17.0115 45.6194 17.4581 44.7033C17.9099 43.7872 18.5362 43.0758 19.3371 42.5691C20.1431 42.0625 21.08 41.8091 22.1479 41.8091C23.2157 41.8091 24.1501 42.0625 24.9509 42.5691C25.7569 43.0758 26.3833 43.7872 26.8299 44.7033C27.2817 45.6194 27.5076 46.6916 27.5076 47.9199C27.5076 49.1379 27.2817 50.2024 26.8299 51.1134C26.3833 52.0244 25.7569 52.7332 24.9509 53.2399C24.1501 53.7466 23.2157 53.9999 22.1479 53.9999ZM22.1479 52.3724C22.959 52.3724 23.6264 52.1651 24.1501 51.7506C24.6737 51.336 25.0613 50.791 25.3129 50.1154C25.5644 49.4399 25.6902 48.708 25.6902 47.9199C25.6902 47.1317 25.5644 46.3973 25.3129 45.7166C25.0613 45.0359 24.6737 44.4858 24.1501 44.0661C23.6264 43.6464 22.959 43.4366 22.1479 43.4366C21.3367 43.4366 20.6693 43.6464 20.1457 44.0661C19.622 44.4858 19.2344 45.0359 18.9829 45.7166C18.7313 46.3973 18.6055 47.1317 18.6055 47.9199C18.6055 48.708 18.7313 49.4399 18.9829 50.1154C19.2344 50.791 19.622 51.336 20.1457 51.7506C20.6693 52.1651 21.3367 52.3724 22.1479 52.3724Z" fill="#A7B6CC"/>
<path d="M32.099 38.0322V53.7543H30.2817V38.0322H32.099Z" fill="#A7B6CC"/>
<path d="M37.2451 38.0322V53.7543H35.4277V38.0322H37.2451Z" fill="#A7B6CC"/>
<path d="M45.5332 53.9999C44.3935 53.9999 43.4104 53.7491 42.5838 53.2476C41.7624 52.7409 41.1284 52.0346 40.6817 51.1288C40.2402 50.2178 40.0195 49.1584 40.0195 47.9506C40.0195 46.7427 40.2402 45.6782 40.6817 44.757C41.1284 43.8307 41.7496 43.1091 42.5453 42.5921C43.3462 42.0701 44.2805 41.8091 45.3484 41.8091C45.9644 41.8091 46.5728 41.9115 47.1735 42.1162C47.7741 42.3209 48.3209 42.6536 48.8137 43.1142C49.3066 43.5697 49.6993 44.1736 49.9919 44.9259C50.2845 45.6782 50.4309 46.6046 50.4309 47.7049V48.4726H41.3132V46.9065H48.5827C48.5827 46.2412 48.4492 45.6475 48.1823 45.1255C47.9204 44.6035 47.5457 44.1915 47.0579 43.8895C46.5754 43.5876 46.0055 43.4366 45.3484 43.4366C44.6245 43.4366 43.9982 43.6157 43.4694 43.974C42.9457 44.3271 42.5427 44.7877 42.2604 45.3558C41.978 45.9239 41.8368 46.5329 41.8368 47.1829V48.2269C41.8368 49.1174 41.9909 49.8723 42.2989 50.4916C42.612 51.1057 43.0459 51.574 43.6003 51.8964C44.1548 52.2138 44.7991 52.3724 45.5332 52.3724C46.0106 52.3724 46.4419 52.3059 46.8269 52.1728C47.2171 52.0346 47.5534 51.8299 47.8357 51.5587C48.1181 51.2823 48.3363 50.9394 48.4903 50.53L50.246 51.0213C50.0612 51.615 49.7506 52.137 49.3143 52.5874C48.8779 53.0326 48.3388 53.3806 47.6971 53.6314C47.0554 53.8771 46.3341 53.9999 45.5332 53.9999Z" fill="#A7B6CC"/>
<path d="M58.0003 53.9999C56.8914 53.9999 55.9365 53.7389 55.1356 53.2169C54.3347 52.6948 53.7187 51.9758 53.2874 51.0597C52.8562 50.1436 52.6406 49.097 52.6406 47.9199C52.6406 46.7223 52.8613 45.6654 53.3028 44.7493C53.7495 43.8281 54.3707 43.1091 55.1664 42.5921C55.9673 42.0701 56.9017 41.8091 57.9695 41.8091C58.8012 41.8091 59.5507 41.9627 60.2181 42.2697C60.8855 42.5768 61.4323 43.0067 61.8584 43.5594C62.2845 44.1122 62.5489 44.757 62.6515 45.494H60.8342C60.6956 44.9566 60.3875 44.4806 59.9101 44.0661C59.4378 43.6464 58.8012 43.4366 58.0003 43.4366C57.2918 43.4366 56.6706 43.6208 56.1367 43.9893C55.6079 44.3527 55.1947 44.867 54.8969 45.5324C54.6043 46.1926 54.458 46.9679 54.458 47.8584C54.458 48.7694 54.6017 49.5627 54.8892 50.2383C55.1818 50.9138 55.5925 51.4384 56.1213 51.812C56.6552 52.1856 57.2816 52.3724 58.0003 52.3724C58.4726 52.3724 58.9013 52.2905 59.2863 52.1268C59.6714 51.963 59.9974 51.7276 60.2643 51.4205C60.5313 51.1134 60.7212 50.7449 60.8342 50.315H62.6515C62.5489 51.0111 62.2947 51.638 61.8892 52.1958C61.4887 52.7486 60.9574 53.1887 60.2951 53.5163C59.638 53.8387 58.8731 53.9999 58.0003 53.9999Z" fill="#A7B6CC"/>
<path d="M70.4526 41.9627V43.4981H64.3228V41.9627H70.4526ZM66.1094 39.1377H67.9268V50.3765C67.9268 50.8883 68.0012 51.2722 68.1501 51.5281C68.3041 51.7788 68.4992 51.9477 68.7353 52.0347C68.9766 52.1166 69.2307 52.1576 69.4977 52.1576C69.6979 52.1576 69.8622 52.1473 69.9906 52.1269C70.1189 52.1013 70.2216 52.0808 70.2986 52.0654L70.6682 53.6929C70.545 53.739 70.373 53.785 70.1523 53.8311C69.9315 53.8823 69.6517 53.9079 69.3129 53.9079C68.7995 53.9079 68.2964 53.7978 67.8035 53.5778C67.3158 53.3577 66.9103 53.0225 66.5868 52.5721C66.2685 52.1217 66.1094 51.5537 66.1094 50.8679V39.1377Z" fill="#A7B6CC"/>
<path d="M73.1866 53.7544V41.9628H75.0039V53.7544H73.1866ZM74.1107 39.9976C73.7564 39.9976 73.451 39.8773 73.1943 39.6368C72.9427 39.3962 72.8169 39.1071 72.8169 38.7693C72.8169 38.4315 72.9427 38.1424 73.1943 37.9018C73.451 37.6613 73.7564 37.541 74.1107 37.541C74.4649 37.541 74.7678 37.6613 75.0193 37.9018C75.276 38.1424 75.4044 38.4315 75.4044 38.7693C75.4044 39.1071 75.276 39.3962 75.0193 39.6368C74.7678 39.8773 74.4649 39.9976 74.1107 39.9976Z" fill="#A7B6CC"/>
<path d="M88.0044 41.9629L83.6304 53.7545H81.7822L77.4082 41.9629H79.3796L82.6447 51.3594H82.7679L86.033 41.9629H88.0044Z" fill="#A7B6CC"/>
<path d="M94.939 53.9999C93.7993 53.9999 92.8162 53.7491 91.9897 53.2476C91.1682 52.7409 90.5342 52.0346 90.0876 51.1288C89.6461 50.2178 89.4253 49.1584 89.4253 47.9506C89.4253 46.7427 89.6461 45.6782 90.0876 44.757C90.5342 43.8307 91.1554 43.1091 91.9511 42.5921C92.752 42.0701 93.6864 41.8091 94.7542 41.8091C95.3703 41.8091 95.9786 41.9115 96.5793 42.1162C97.18 42.3209 97.7267 42.6536 98.2196 43.1142C98.7124 43.5697 99.1051 44.1736 99.3978 44.9259C99.6904 45.6782 99.8367 46.6046 99.8367 47.7049V48.4726H90.719V46.9065H97.9885C97.9885 46.2412 97.8551 45.6475 97.5881 45.1255C97.3263 44.6035 96.9515 44.1915 96.4638 43.8895C95.9812 43.5876 95.4113 43.4366 94.7542 43.4366C94.0303 43.4366 93.404 43.6157 92.8752 43.974C92.3516 44.3271 91.9486 44.7877 91.6662 45.3558C91.3839 45.9239 91.2427 46.5329 91.2427 47.1829V48.2269C91.2427 49.1174 91.3967 49.8723 91.7047 50.4916C92.0179 51.1057 92.4517 51.574 93.0062 51.8964C93.5606 52.2138 94.2049 52.3724 94.939 52.3724C95.4165 52.3724 95.8477 52.3059 96.2328 52.1728C96.6229 52.0346 96.9592 51.8299 97.2416 51.5587C97.5239 51.2823 97.7421 50.9394 97.8961 50.53L99.6519 51.0213C99.4671 51.615 99.1565 52.137 98.7201 52.5874C98.2837 53.0326 97.7447 53.3806 97.103 53.6314C96.4612 53.8771 95.7399 53.9999 94.939 53.9999Z" fill="#A7B6CC"/>
<path d="M9.30195 25.2758C7.47687 25.2758 5.90592 24.9073 4.5891 24.1704C3.27997 23.4257 2.27117 22.374 1.5627 21.0152C0.854234 19.6487 0.5 18.0327 0.5 16.1673C0.5 14.3479 0.854234 12.7511 1.5627 11.3769C2.27117 10.0028 3.26842 8.9319 4.55444 8.16422C5.84817 7.39654 7.36521 7.0127 9.10558 7.0127C10.2761 7.0127 11.3658 7.20078 12.3745 7.57695C13.391 7.94543 14.2766 8.502 15.0313 9.24665C15.7937 9.99131 16.3866 10.9278 16.8102 12.0563C17.2337 13.1772 17.4455 14.4899 17.4455 15.9945V17.3418H2.46369V14.3018H12.8135C12.8135 13.5955 12.6595 12.9699 12.3514 12.4248C12.0434 11.8798 11.616 11.4537 11.0693 11.1466C10.5302 10.8319 9.90261 10.6745 9.18644 10.6745C8.43947 10.6745 7.7772 10.8472 7.19965 11.1927C6.62979 11.5305 6.18315 11.9872 5.85972 12.563C5.53629 13.1311 5.37072 13.7644 5.36302 14.463V17.3533C5.36302 18.2285 5.52474 18.9847 5.84817 19.6218C6.1793 20.259 6.64519 20.7503 7.24585 21.0958C7.84651 21.4412 8.55883 21.614 9.38281 21.614C9.92956 21.614 10.4301 21.5372 10.8845 21.3837C11.3388 21.2301 11.7277 20.9998 12.0511 20.6928C12.3745 20.3857 12.621 20.0095 12.7904 19.5643L17.3415 19.8637C17.1105 20.9538 16.6369 21.9057 15.9207 22.7194C15.2123 23.5255 14.2959 24.155 13.1716 24.6079C12.055 25.0532 10.7651 25.2758 9.30195 25.2758Z" fill="#535353"/>
<path d="M20.6565 24.9305V7.24308H25.5773V24.9305H20.6565ZM23.1284 4.96306C22.3969 4.96306 21.7693 4.72124 21.2456 4.2376C20.7297 3.74629 20.4717 3.15901 20.4717 2.47577C20.4717 1.80021 20.7297 1.22061 21.2456 0.736975C21.7693 0.245659 22.3969 0 23.1284 0C23.86 0 24.4838 0.245659 24.9997 0.736975C25.5234 1.22061 25.7852 1.80021 25.7852 2.47577C25.7852 3.15901 25.5234 3.74629 24.9997 4.2376C24.4838 4.72124 23.86 4.96306 23.1284 4.96306Z" fill="#535353"/>
<path d="M34.4403 14.7048V24.9304H29.5195V7.24301H34.2092V10.3636H34.4172C34.8099 9.33494 35.4683 8.5212 36.3924 7.9224C37.3165 7.31594 38.437 7.0127 39.7538 7.0127C40.9859 7.0127 42.0602 7.28139 42.9765 7.81877C43.8929 8.35614 44.6052 9.12382 45.1135 10.1218C45.6217 11.1121 45.8759 12.2943 45.8759 13.6685V24.9304H40.9551V14.5436C40.9628 13.4612 40.6856 12.6167 40.1234 12.0103C39.5613 11.3961 38.7873 11.0891 37.8016 11.0891C37.1394 11.0891 36.5541 11.2311 36.0459 11.5151C35.5453 11.7992 35.1526 12.2137 34.8677 12.7588C34.5904 13.2961 34.448 13.9448 34.4403 14.7048Z" fill="#535353"/>
<path d="M49.8462 24.9304V1.34717H54.8478V11.0775H65.0012V1.34717H69.9913V24.9304H65.0012V15.1885H54.8478V24.9304H49.8462Z" fill="#535353"/>
<path d="M79.0824 25.2643C77.9504 25.2643 76.9416 25.0685 76.056 24.677C75.1705 24.2778 74.4697 23.6906 73.9538 22.9152C73.4455 22.1322 73.1914 21.1572 73.1914 19.9903C73.1914 19.0077 73.3723 18.1824 73.7343 17.5146C74.0962 16.8467 74.5891 16.3093 75.2128 15.9024C75.8366 15.4956 76.545 15.1885 77.3382 14.9812C78.1391 14.7739 78.9785 14.6281 79.8564 14.5436C80.8883 14.4362 81.7199 14.3364 82.3514 14.2442C82.9829 14.1444 83.4411 13.9986 83.726 13.8067C84.0109 13.6147 84.1534 13.3307 84.1534 12.9545V12.8854C84.1534 12.1561 83.9224 11.5919 83.4603 11.1927C83.006 10.7935 82.3591 10.5939 81.5197 10.5939C80.6341 10.5939 79.9295 10.7897 79.4059 11.1812C78.8822 11.565 78.5357 12.0487 78.3663 12.6321L73.8151 12.2636C74.0462 11.1889 74.5005 10.26 75.1782 9.47695C75.8558 8.68624 76.7299 8.07978 77.8003 7.65755C78.8784 7.22765 80.1259 7.0127 81.5428 7.0127C82.5285 7.0127 83.4719 7.12785 84.3729 7.35816C85.2815 7.58846 86.0863 7.94543 86.787 8.42907C87.4955 8.91271 88.0538 9.53452 88.4619 10.2945C88.8701 11.0468 89.0742 11.9489 89.0742 13.0006V24.9304H84.4075V22.4776H84.2689C83.984 23.0303 83.6028 23.5178 83.1253 23.94C82.6479 24.3546 82.0742 24.6809 81.4042 24.9188C80.7343 25.1491 79.9603 25.2643 79.0824 25.2643ZM80.4917 21.8788C81.2155 21.8788 81.8547 21.7368 82.4092 21.4528C82.9636 21.161 83.3987 20.7695 83.7144 20.2782C84.0302 19.7869 84.188 19.2303 84.188 18.6085V16.7315C84.034 16.8313 83.8223 16.9234 83.5527 17.0079C83.2909 17.0847 82.9944 17.1576 82.6633 17.2267C82.3322 17.2881 82.001 17.3457 81.6699 17.3994C81.3388 17.4455 81.0384 17.4877 80.7689 17.5261C80.1914 17.6105 79.687 17.7449 79.2557 17.9291C78.8245 18.1133 78.4895 18.3628 78.2508 18.6776C78.012 18.9847 77.8927 19.3685 77.8927 19.8291C77.8927 20.497 78.1353 21.0075 78.6204 21.3606C79.1132 21.7061 79.737 21.8788 80.4917 21.8788Z" fill="#535353"/>
<path d="M92.8916 24.9305V7.24309H97.6622V10.3292H97.847C98.1705 9.23138 98.7134 8.40228 99.4757 7.84188C100.238 7.27379 101.116 6.98975 102.109 6.98975C102.356 6.98975 102.621 7.0051 102.906 7.03581C103.191 7.06652 103.442 7.10874 103.657 7.16248V11.5152C103.426 11.4461 103.107 11.3847 102.699 11.331C102.29 11.2772 101.917 11.2504 101.578 11.2504C100.854 11.2504 100.207 11.4077 99.6375 11.7225C99.0753 12.0296 98.6287 12.4595 98.2975 13.0122C97.9741 13.5649 97.8124 14.2021 97.8124 14.9237V24.9305H92.8916Z" fill="#535353"/>
<path d="M117.579 17.3996V7.24316H122.5V24.9306H117.776V21.7178H117.591C117.19 22.7542 116.524 23.5871 115.592 24.2166C114.668 24.8461 113.54 25.1609 112.208 25.1609C111.022 25.1609 109.979 24.8922 109.078 24.3548C108.177 23.8174 107.472 23.0536 106.964 22.0633C106.463 21.073 106.209 19.8869 106.201 18.5051V7.24316H111.122V17.6299C111.13 18.674 111.411 19.4992 111.965 20.1057C112.52 20.7121 113.263 21.0154 114.195 21.0154C114.788 21.0154 115.342 20.881 115.858 20.6123C116.374 20.336 116.79 19.9291 117.106 19.3917C117.429 18.8544 117.587 18.1903 117.579 17.3996Z" fill="#535353"/>
</g>
<defs>
<clipPath id="clip0_44_220">
<rect width="122" height="54" fill="white" transform="translate(0.5)"/>
</clipPath>
</defs>
</svg>
