<svg width="122" height="54" viewBox="0 0 122 54" fill="none" xmlns="http://www.w3.org/2000/svg">
<path d="M14.0028 42.9454H12.0931C11.9801 42.3978 11.7825 41.9167 11.5001 41.5021C11.2229 41.0876 10.884 40.7396 10.4836 40.4581C10.0883 40.1715 9.64936 39.9565 9.16678 39.8132C8.6842 39.6699 8.18108 39.5983 7.65743 39.5983C6.70254 39.5983 5.83749 39.8388 5.06228 40.3199C4.29221 40.801 3.67872 41.5098 3.2218 42.4464C2.77003 43.383 2.54414 44.5319 2.54414 45.8933C2.54414 47.2546 2.77003 48.4036 3.2218 49.3402C3.67872 50.2767 4.29221 50.9856 5.06228 51.4666C5.83749 51.9477 6.70254 52.1883 7.65743 52.1883C8.18108 52.1883 8.6842 52.1166 9.16678 51.9733C9.64936 51.83 10.0883 51.6176 10.4836 51.3361C10.884 51.0495 11.2229 50.699 11.5001 50.2844C11.7825 49.8648 11.9801 49.3837 12.0931 48.8412H14.0028C13.8591 49.6447 13.5973 50.3637 13.2174 50.9984C12.8375 51.633 12.3652 52.1729 11.8004 52.6182C11.2357 53.0583 10.6017 53.3935 9.89835 53.6238C9.20015 53.8541 8.45318 53.9693 7.65743 53.9693C6.31237 53.9693 5.11619 53.6417 4.06889 52.9867C3.02158 52.3316 2.19761 51.4001 1.59695 50.1923C0.99629 48.9845 0.69596 47.5515 0.69596 45.8933C0.69596 44.2351 0.99629 42.8021 1.59695 41.5943C2.19761 40.3864 3.02158 39.455 4.06889 38.7999C5.11619 38.1448 6.31237 37.8173 7.65743 37.8173C8.45318 37.8173 9.20015 37.9324 9.89835 38.1627C10.6017 38.393 11.2357 38.7308 11.8004 39.1761C12.3652 39.6162 12.8375 40.1536 13.2174 40.7882C13.5973 41.4177 13.8591 42.1368 14.0028 42.9454Z" fill="#D6DFEC"/>
<path d="M21.6478 54C20.5799 54 19.643 53.7467 18.837 53.24C18.0361 52.7333 17.4098 52.0245 16.958 51.1135C16.5114 50.2025 16.288 49.138 16.288 47.92C16.288 46.6917 16.5114 45.6195 16.958 44.7034C17.4098 43.7873 18.0361 43.0759 18.837 42.5692C19.643 42.0626 20.5799 41.8092 21.6478 41.8092C22.7156 41.8092 23.65 42.0626 24.4508 42.5692C25.2568 43.0759 25.8832 43.7873 26.3298 44.7034C26.7816 45.6195 27.0075 46.6917 27.0075 47.92C27.0075 49.138 26.7816 50.2025 26.3298 51.1135C25.8832 52.0245 25.2568 52.7333 24.4508 53.24C23.65 53.7467 22.7156 54 21.6478 54ZM21.6478 52.3725C22.4589 52.3725 23.1263 52.1652 23.65 51.7507C24.1736 51.3361 24.5612 50.7911 24.8128 50.1155C25.0643 49.44 25.1901 48.7081 25.1901 47.92C25.1901 47.1318 25.0643 46.3974 24.8128 45.7167C24.5612 45.036 24.1736 44.4859 23.65 44.0662C23.1263 43.6465 22.4589 43.4367 21.6478 43.4367C20.8366 43.4367 20.1692 43.6465 19.6456 44.0662C19.1219 44.4859 18.7343 45.036 18.4828 45.7167C18.2312 46.3974 18.1054 47.1318 18.1054 47.92C18.1054 48.7081 18.2312 49.44 18.4828 50.1155C18.7343 50.7911 19.1219 51.3361 19.6456 51.7507C20.1692 52.1652 20.8366 52.3725 21.6478 52.3725Z" fill="#D6DFEC"/>
<path d="M31.599 38.0322V53.7543H29.7817V38.0322H31.599Z" fill="#D6DFEC"/>
<path d="M36.7451 38.0322V53.7543H34.9277V38.0322H36.7451Z" fill="#D6DFEC"/>
<path d="M45.033 54C43.8933 54 42.9102 53.7492 42.0836 53.2477C41.2622 52.741 40.6282 52.0347 40.1815 51.1289C39.74 50.2179 39.5193 49.1585 39.5193 47.9507C39.5193 46.7428 39.74 45.6783 40.1815 44.7571C40.6282 43.8308 41.2494 43.1092 42.0451 42.5922C42.846 42.0702 43.7803 41.8092 44.8482 41.8092C45.4642 41.8092 46.0726 41.9116 46.6733 42.1163C47.2739 42.321 47.8207 42.6537 48.3135 43.1143C48.8064 43.5698 49.1991 44.1737 49.4917 44.926C49.7843 45.6783 49.9307 46.6047 49.9307 47.705V48.4727H40.813V46.9066H48.0825C48.0825 46.2413 47.949 45.6476 47.6821 45.1256C47.4202 44.6036 47.0455 44.1916 46.5577 43.8896C46.0752 43.5877 45.5053 43.4367 44.8482 43.4367C44.1243 43.4367 43.498 43.6158 42.9692 43.9741C42.4455 44.3272 42.0425 44.7878 41.7602 45.3559C41.4778 45.924 41.3366 46.533 41.3366 47.183V48.227C41.3366 49.1175 41.4907 49.8724 41.7987 50.4917C42.1118 51.1058 42.5457 51.5741 43.1001 51.8965C43.6546 52.2139 44.2989 52.3725 45.033 52.3725C45.5104 52.3725 45.9417 52.306 46.3267 52.1729C46.7169 52.0347 47.0532 51.83 47.3355 51.5588C47.6179 51.2824 47.8361 50.9395 47.9901 50.5301L49.7458 51.0214C49.561 51.6151 49.2504 52.1371 48.8141 52.5875C48.3777 53.0327 47.8386 53.3807 47.1969 53.6315C46.5552 53.8772 45.8339 54 45.033 54Z" fill="#D6DFEC"/>
<path d="M57.5005 54C56.3916 54 55.4367 53.739 54.6358 53.217C53.8349 52.6949 53.2189 51.9759 52.7876 51.0598C52.3564 50.1437 52.1408 49.0971 52.1408 47.92C52.1408 46.7224 52.3615 45.6655 52.803 44.7494C53.2497 43.8282 53.8709 43.1092 54.6666 42.5922C55.4675 42.0702 56.4019 41.8092 57.4697 41.8092C58.3014 41.8092 59.0509 41.9628 59.7183 42.2698C60.3857 42.5769 60.9325 43.0068 61.3586 43.5595C61.7847 44.1123 62.0491 44.7571 62.1517 45.4941H60.3344C60.1958 44.9567 59.8877 44.4807 59.4103 44.0662C58.938 43.6465 58.3014 43.4367 57.5005 43.4367C56.792 43.4367 56.1708 43.6209 55.6369 43.9894C55.1081 44.3528 54.6949 44.8671 54.3971 45.5325C54.1045 46.1927 53.9582 46.968 53.9582 47.8585C53.9582 48.7695 54.1019 49.5628 54.3894 50.2384C54.682 50.9139 55.0927 51.4385 55.6215 51.8121C56.1554 52.1857 56.7818 52.3725 57.5005 52.3725C57.9728 52.3725 58.4015 52.2906 58.7865 52.1269C59.1716 51.9631 59.4976 51.7277 59.7645 51.4206C60.0315 51.1135 60.2214 50.745 60.3344 50.3151H62.1517C62.0491 51.0112 61.7949 51.6381 61.3894 52.1959C60.9889 52.7487 60.4576 53.1888 59.7953 53.5164C59.1382 53.8388 58.3733 54 57.5005 54Z" fill="#D6DFEC"/>
<path d="M69.9526 41.9627V43.4981H63.8228V41.9627H69.9526ZM65.6094 39.1377H67.4268V50.3765C67.4268 50.8883 67.5012 51.2722 67.6501 51.5281C67.8041 51.7788 67.9992 51.9477 68.2353 52.0347C68.4766 52.1166 68.7307 52.1576 68.9977 52.1576C69.1979 52.1576 69.3622 52.1473 69.4906 52.1269C69.6189 52.1013 69.7216 52.0808 69.7986 52.0654L70.1682 53.6929C70.045 53.739 69.873 53.785 69.6523 53.8311C69.4315 53.8823 69.1517 53.9079 68.8129 53.9079C68.2995 53.9079 67.7964 53.7978 67.3035 53.5778C66.8158 53.3577 66.4103 53.0225 66.0868 52.5721C65.7685 52.1217 65.6094 51.5537 65.6094 50.8679V39.1377Z" fill="#D6DFEC"/>
<path d="M72.6864 53.7543V41.9627H74.5037V53.7543H72.6864ZM73.6105 39.9975C73.2562 39.9975 72.9508 39.8772 72.6941 39.6367C72.4425 39.3961 72.3167 39.107 72.3167 38.7692C72.3167 38.4314 72.4425 38.1423 72.6941 37.9017C72.9508 37.6612 73.2562 37.5409 73.6105 37.5409C73.9647 37.5409 74.2676 37.6612 74.5191 37.9017C74.7758 38.1423 74.9042 38.4314 74.9042 38.7692C74.9042 39.107 74.7758 39.3961 74.5191 39.6367C74.2676 39.8772 73.9647 39.9975 73.6105 39.9975Z" fill="#D6DFEC"/>
<path d="M87.5045 41.9627L83.1305 53.7543H81.2823L76.9083 41.9627H78.8797L82.1448 51.3592H82.268L85.5331 41.9627H87.5045Z" fill="#D6DFEC"/>
<path d="M94.439 54C93.2993 54 92.3162 53.7492 91.4897 53.2477C90.6682 52.741 90.0342 52.0347 89.5876 51.1289C89.1461 50.2179 88.9253 49.1585 88.9253 47.9507C88.9253 46.7428 89.1461 45.6783 89.5876 44.7571C90.0342 43.8308 90.6554 43.1092 91.4511 42.5922C92.252 42.0702 93.1864 41.8092 94.2542 41.8092C94.8703 41.8092 95.4786 41.9116 96.0793 42.1163C96.68 42.321 97.2267 42.6537 97.7196 43.1143C98.2124 43.5698 98.6051 44.1737 98.8978 44.926C99.1904 45.6783 99.3367 46.6047 99.3367 47.705V48.4727H90.219V46.9066H97.4885C97.4885 46.2413 97.3551 45.6476 97.0881 45.1256C96.8263 44.6036 96.4515 44.1916 95.9638 43.8896C95.4812 43.5877 94.9113 43.4367 94.2542 43.4367C93.5303 43.4367 92.904 43.6158 92.3752 43.9741C91.8516 44.3272 91.4486 44.7878 91.1662 45.3559C90.8839 45.924 90.7427 46.533 90.7427 47.183V48.227C90.7427 49.1175 90.8967 49.8724 91.2047 50.4917C91.5179 51.1058 91.9517 51.5741 92.5062 51.8965C93.0606 52.2139 93.7049 52.3725 94.439 52.3725C94.9165 52.3725 95.3477 52.306 95.7328 52.1729C96.1229 52.0347 96.4592 51.83 96.7416 51.5588C97.0239 51.2824 97.2421 50.9395 97.3961 50.5301L99.1519 51.0214C98.9671 51.6151 98.6565 52.1371 98.2201 52.5875C97.7837 53.0327 97.2447 53.3807 96.603 53.6315C95.9612 53.8772 95.2399 54 94.439 54Z" fill="#D6DFEC"/>
<path d="M8.80195 25.2759C6.97687 25.2759 5.40592 24.9074 4.0891 24.1705C2.77997 23.4258 1.77117 22.3741 1.0627 21.0153C0.354234 19.6488 0 18.0328 0 16.1674C0 14.348 0.354234 12.7512 1.0627 11.377C1.77117 10.0029 2.76842 8.93197 4.05444 8.16429C5.34817 7.39661 6.86521 7.01277 8.60558 7.01277C9.77609 7.01277 10.8658 7.20085 11.8745 7.57702C12.891 7.9455 13.7766 8.50207 14.5313 9.24672C15.2937 9.99138 15.8866 10.9279 16.3102 12.0564C16.7337 13.1773 16.9455 14.49 16.9455 15.9946V17.3419H1.96369V14.3019H12.3135C12.3135 13.5956 12.1595 12.97 11.8514 12.4249C11.5434 11.8799 11.116 11.4538 10.5693 11.1467C10.0302 10.832 9.40261 10.6746 8.68644 10.6746C7.93947 10.6746 7.2772 10.8473 6.69965 11.1928C6.12979 11.5306 5.68315 11.9873 5.35972 12.5631C5.03629 13.1312 4.87072 13.7645 4.86302 14.4631V17.3534C4.86302 18.2286 5.02474 18.9848 5.34817 19.6219C5.6793 20.2591 6.14519 20.7504 6.74585 21.0959C7.34651 21.4413 8.05883 21.6141 8.88281 21.6141C9.42956 21.6141 9.93011 21.5373 10.3845 21.3838C10.8388 21.2302 11.2277 20.9999 11.5511 20.6929C11.8745 20.3858 12.121 20.0096 12.2904 19.5644L16.8415 19.8638C16.6105 20.9539 16.1369 21.9058 15.4207 22.7195C14.7123 23.5256 13.7959 24.1551 12.6716 24.608C11.555 25.0533 10.2651 25.2759 8.80195 25.2759Z" fill="#535353"/>
<path d="M20.1567 24.9305V7.24308H25.0775V24.9305H20.1567ZM22.6286 4.96306C21.8971 4.96306 21.2695 4.72124 20.7458 4.2376C20.2299 3.74629 19.9719 3.15901 19.9719 2.47577C19.9719 1.80021 20.2299 1.22061 20.7458 0.736975C21.2695 0.245659 21.8971 0 22.6286 0C23.3602 0 23.984 0.245659 24.4999 0.736975C25.0236 1.22061 25.2854 1.80021 25.2854 2.47577C25.2854 3.15901 25.0236 3.74629 24.4999 4.2376C23.984 4.72124 23.3602 4.96306 22.6286 4.96306Z" fill="#535353"/>
<path d="M33.9401 14.7049V24.9305H29.0193V7.24308H33.709V10.3637H33.917C34.3097 9.33501 34.9681 8.52127 35.8922 7.92247C36.8163 7.31601 37.9368 7.01277 39.2536 7.01277C40.4857 7.01277 41.56 7.28146 42.4763 7.81884C43.3927 8.35621 44.105 9.1239 44.6133 10.1219C45.1215 11.1122 45.3757 12.2944 45.3757 13.6686V24.9305H40.4549V14.5437C40.4626 13.4613 40.1854 12.6168 39.6232 12.0104C39.0611 11.3962 38.2871 11.0892 37.3014 11.0892C36.6392 11.0892 36.0539 11.2312 35.5457 11.5152C35.0451 11.7993 34.6524 12.2138 34.3675 12.7589C34.0902 13.2962 33.9478 13.9449 33.9401 14.7049Z" fill="#535353"/>
<path d="M49.3464 24.9305V1.34728H54.348V11.0776H64.5014V1.34728H69.4915V24.9305H64.5014V15.1886H54.348V24.9305H49.3464Z" fill="#535353"/>
<path d="M78.5822 25.2644C77.4502 25.2644 76.4414 25.0686 75.5558 24.6771C74.6703 24.2779 73.9695 23.6907 73.4536 22.9153C72.9453 22.1323 72.6912 21.1573 72.6912 19.9904C72.6912 19.0078 72.8721 18.1825 73.2341 17.5147C73.596 16.8468 74.0889 16.3094 74.7126 15.9025C75.3364 15.4957 76.0448 15.1886 76.838 14.9813C77.6389 14.774 78.4783 14.6282 79.3562 14.5437C80.3881 14.4363 81.2197 14.3365 81.8512 14.2443C82.4827 14.1445 82.9409 13.9987 83.2258 13.8068C83.5107 13.6148 83.6532 13.3308 83.6532 12.9546V12.8855C83.6532 12.1562 83.4222 11.592 82.9601 11.1928C82.5058 10.7936 81.8589 10.594 81.0195 10.594C80.1339 10.594 79.4293 10.7898 78.9057 11.1813C78.382 11.5651 78.0355 12.0488 77.8661 12.6322L73.3149 12.2637C73.546 11.189 74.0003 10.2601 74.678 9.47703C75.3556 8.68632 76.2297 8.07985 77.3001 7.65762C78.3782 7.22772 79.6257 7.01277 81.0426 7.01277C82.0283 7.01277 82.9717 7.12792 83.8727 7.35823C84.7813 7.58853 85.5861 7.9455 86.2868 8.42914C86.9953 8.91278 87.5536 9.5346 87.9617 10.2946C88.3699 11.0469 88.574 11.949 88.574 13.0007V24.9305H83.9073V22.4777H83.7687C83.4838 23.0304 83.1026 23.5179 82.6251 23.9401C82.1477 24.3547 81.574 24.681 80.904 24.9189C80.2341 25.1492 79.4601 25.2644 78.5822 25.2644ZM79.9915 21.8789C80.7153 21.8789 81.3545 21.7369 81.909 21.4529C82.4634 21.1611 82.8985 20.7696 83.2142 20.2783C83.53 19.787 83.6878 19.2304 83.6878 18.6086V16.7316C83.5338 16.8314 83.3221 16.9235 83.0525 17.008C82.7907 17.0848 82.4942 17.1577 82.1631 17.2268C81.832 17.2882 81.5008 17.3458 81.1697 17.3995C80.8386 17.4456 80.5382 17.4878 80.2687 17.5262C79.6912 17.6106 79.1868 17.745 78.7555 17.9292C78.3243 18.1134 77.9893 18.3629 77.7506 18.6777C77.5118 18.9848 77.3925 19.3686 77.3925 19.8292C77.3925 20.4971 77.6351 21.0076 78.1202 21.3607C78.613 21.7062 79.2368 21.8789 79.9915 21.8789Z" fill="#535353"/>
<path d="M92.3916 24.9305V7.24308H97.1622V10.3292H97.347C97.6705 9.23137 98.2134 8.40227 98.9757 7.84187C99.7381 7.27378 100.616 6.98974 101.609 6.98974C101.856 6.98974 102.121 7.00509 102.406 7.0358C102.691 7.06651 102.942 7.10873 103.157 7.16247V11.5152C102.926 11.4461 102.607 11.3847 102.199 11.331C101.79 11.2772 101.417 11.2504 101.078 11.2504C100.354 11.2504 99.7073 11.4077 99.1375 11.7225C98.5753 12.0296 98.1287 12.4595 97.7975 13.0122C97.4741 13.5649 97.3124 14.2021 97.3124 14.9237V24.9305H92.3916Z" fill="#535353"/>
<path d="M117.079 17.3995V7.24308H122V24.9305H117.276V21.7177H117.091C116.69 22.7541 116.024 23.587 115.092 24.2165C114.168 24.846 113.04 25.1608 111.708 25.1608C110.522 25.1608 109.479 24.8921 108.578 24.3547C107.677 23.8173 106.972 23.0535 106.464 22.0632C105.963 21.0729 105.709 19.8868 105.701 18.505V7.24308H110.622V17.6298C110.63 18.6739 110.911 19.4991 111.465 20.1056C112.02 20.712 112.763 21.0153 113.695 21.0153C114.288 21.0153 114.842 20.8809 115.358 20.6122C115.874 20.3359 116.29 19.929 116.606 19.3916C116.929 18.8543 117.087 18.1902 117.079 17.3995Z" fill="#535353"/>
</svg>
