<svg width="392" height="174" viewBox="0 0 392 174" fill="none" xmlns="http://www.w3.org/2000/svg">
<g clip-path="url(#clip0_44_202)">
<path d="M83.837 138.065H77.7163C77.3543 136.305 76.7209 134.758 75.8159 133.426C74.9274 132.093 73.8415 130.974 72.5581 130.069C71.2912 129.148 69.8844 128.457 68.3378 127.996C66.7912 127.535 65.1787 127.305 63.5005 127.305C60.4401 127.305 57.6677 128.078 55.1832 129.625C52.7152 131.171 50.749 133.45 49.2846 136.461C47.8367 139.472 47.1128 143.166 47.1128 147.543C47.1128 151.919 47.8367 155.613 49.2846 158.624C50.749 161.635 52.7152 163.914 55.1832 165.461C57.6677 167.007 60.4401 167.78 63.5005 167.78C65.1787 167.78 66.7912 167.55 68.3378 167.089C69.8844 166.629 71.2912 165.946 72.5581 165.041C73.8415 164.12 74.9274 162.993 75.8159 161.66C76.7209 160.311 77.3543 158.764 77.7163 157.02H83.837C83.3763 159.603 82.5372 161.915 81.3196 163.955C80.1021 165.995 78.5883 167.731 76.7784 169.163C74.9686 170.578 72.9366 171.655 70.6824 172.396C68.4447 173.136 66.0508 173.506 63.5005 173.506C59.1896 173.506 55.356 172.453 51.9995 170.347C48.643 168.241 46.0022 165.247 44.0771 161.364C42.152 157.481 41.1895 152.874 41.1895 147.543C41.1895 142.212 42.152 137.605 44.0771 133.722C46.0022 129.839 48.643 126.844 51.9995 124.738C55.356 122.632 59.1896 121.579 63.5005 121.579C66.0508 121.579 68.4447 121.949 70.6824 122.69C72.9366 123.43 74.9686 124.516 76.7784 125.947C78.5883 127.362 80.1021 129.09 81.3196 131.13C82.5372 133.154 83.3763 135.466 83.837 138.065Z" fill="#A7B6CC"/>
<path d="M108.338 173.605C104.916 173.605 101.913 172.791 99.3302 171.162C96.7635 169.533 94.7562 167.254 93.3082 164.325C91.8768 161.397 91.1611 157.974 91.1611 154.058C91.1611 150.109 91.8768 146.662 93.3082 143.717C94.7562 140.772 96.7635 138.485 99.3302 136.856C101.913 135.227 104.916 134.413 108.338 134.413C111.761 134.413 114.755 135.227 117.322 136.856C119.905 138.485 121.912 140.772 123.344 143.717C124.792 146.662 125.516 150.109 125.516 154.058C125.516 157.974 124.792 161.397 123.344 164.325C121.912 167.254 119.905 169.533 117.322 171.162C114.755 172.791 111.761 173.605 108.338 173.605ZM108.338 168.373C110.938 168.373 113.077 167.706 114.755 166.374C116.433 165.041 117.676 163.289 118.482 161.117C119.288 158.945 119.691 156.592 119.691 154.058C119.691 151.524 119.288 149.163 118.482 146.975C117.676 144.787 116.433 143.018 114.755 141.669C113.077 140.32 110.938 139.645 108.338 139.645C105.739 139.645 103.6 140.32 101.921 141.669C100.243 143.018 99.0012 144.787 98.1949 146.975C97.3887 149.163 96.9856 151.524 96.9856 154.058C96.9856 156.592 97.3887 158.945 98.1949 161.117C99.0012 163.289 100.243 165.041 101.921 166.374C103.6 167.706 105.739 168.373 108.338 168.373Z" fill="#A7B6CC"/>
<path d="M140.231 122.27V172.815H134.407V122.27H140.231Z" fill="#A7B6CC"/>
<path d="M156.724 122.27V172.815H150.899V122.27H156.724Z" fill="#A7B6CC"/>
<path d="M183.286 173.605C179.633 173.605 176.483 172.799 173.834 171.186C171.201 169.557 169.169 167.287 167.738 164.375C166.323 161.446 165.615 158.04 165.615 154.157C165.615 150.274 166.323 146.852 167.738 143.89C169.169 140.912 171.16 138.592 173.71 136.93C176.277 135.252 179.271 134.413 182.694 134.413C184.668 134.413 186.618 134.742 188.543 135.4C190.468 136.058 192.22 137.128 193.8 138.608C195.379 140.073 196.638 142.014 197.576 144.433C198.514 146.852 198.983 149.83 198.983 153.367V155.835H169.761V150.8H193.059C193.059 148.662 192.632 146.753 191.776 145.075C190.937 143.396 189.736 142.072 188.173 141.101C186.626 140.13 184.8 139.645 182.694 139.645C180.374 139.645 178.366 140.221 176.672 141.373C174.994 142.508 173.702 143.989 172.797 145.815C171.892 147.641 171.44 149.599 171.44 151.689V155.045C171.44 157.908 171.933 160.335 172.92 162.326C173.924 164.301 175.314 165.806 177.091 166.843C178.868 167.863 180.933 168.373 183.286 168.373C184.816 168.373 186.198 168.159 187.432 167.731C188.683 167.287 189.761 166.629 190.665 165.757C191.57 164.868 192.27 163.766 192.763 162.45L198.39 164.029C197.798 165.938 196.803 167.616 195.404 169.064C194.006 170.495 192.278 171.614 190.221 172.42C188.165 173.21 185.853 173.605 183.286 173.605Z" fill="#A7B6CC"/>
<path d="M223.243 173.605C219.689 173.605 216.629 172.766 214.062 171.088C211.496 169.409 209.521 167.098 208.139 164.152C206.757 161.207 206.066 157.843 206.066 154.058C206.066 150.208 206.773 146.81 208.188 143.865C209.62 140.904 211.611 138.592 214.161 136.93C216.728 135.252 219.722 134.413 223.145 134.413C225.81 134.413 228.212 134.906 230.351 135.894C232.49 136.881 234.243 138.263 235.608 140.04C236.974 141.817 237.821 143.89 238.15 146.259H232.326C231.882 144.532 230.894 143.001 229.364 141.669C227.85 140.32 225.81 139.645 223.243 139.645C220.973 139.645 218.982 140.237 217.271 141.422C215.576 142.59 214.252 144.244 213.297 146.383C212.359 148.505 211.89 150.998 211.89 153.861C211.89 156.79 212.351 159.34 213.273 161.512C214.21 163.684 215.527 165.37 217.221 166.571C218.933 167.772 220.94 168.373 223.243 168.373C224.757 168.373 226.131 168.11 227.365 167.583C228.599 167.057 229.644 166.3 230.499 165.312C231.355 164.325 231.964 163.141 232.326 161.758H238.15C237.821 163.996 237.007 166.012 235.707 167.805C234.424 169.582 232.721 170.997 230.598 172.05C228.492 173.087 226.041 173.605 223.243 173.605Z" fill="#A7B6CC"/>
<path d="M263.151 134.906V139.842H243.506V134.906H263.151ZM249.232 125.824H255.056V161.956C255.056 163.601 255.295 164.835 255.772 165.658C256.266 166.464 256.891 167.007 257.648 167.287C258.421 167.55 259.235 167.682 260.091 167.682C260.733 167.682 261.259 167.649 261.671 167.583C262.082 167.501 262.411 167.435 262.658 167.386L263.842 172.618C263.448 172.766 262.896 172.914 262.189 173.062C261.481 173.227 260.585 173.309 259.499 173.309C257.853 173.309 256.241 172.955 254.661 172.248C253.098 171.54 251.798 170.462 250.762 169.014C249.742 167.567 249.232 165.74 249.232 163.535V125.824Z" fill="#A7B6CC"/>
<path d="M271.913 172.815V134.906H277.737V172.815H271.913ZM274.875 128.588C273.739 128.588 272.76 128.202 271.938 127.428C271.131 126.655 270.728 125.725 270.728 124.639C270.728 123.553 271.131 122.624 271.938 121.851C272.76 121.077 273.739 120.691 274.875 120.691C276.01 120.691 276.981 121.077 277.787 121.851C278.609 122.624 279.021 123.553 279.021 124.639C279.021 125.725 278.609 126.655 277.787 127.428C276.981 128.202 276.01 128.588 274.875 128.588Z" fill="#A7B6CC"/>
<path d="M319.404 134.906L305.385 172.815H299.462L285.444 134.906H291.762L302.226 165.115H302.621L313.086 134.906H319.404Z" fill="#A7B6CC"/>
<path d="M341.628 173.605C337.976 173.605 334.825 172.799 332.176 171.186C329.543 169.557 327.511 167.287 326.08 164.375C324.665 161.446 323.957 158.04 323.957 154.157C323.957 150.274 324.665 146.852 326.08 143.89C327.511 140.912 329.502 138.592 332.052 136.93C334.619 135.252 337.614 134.413 341.036 134.413C343.011 134.413 344.96 134.742 346.885 135.4C348.81 136.058 350.563 137.128 352.142 138.608C353.722 140.073 354.98 142.014 355.918 144.433C356.856 146.852 357.325 149.83 357.325 153.367V155.835H328.104V150.8H351.402C351.402 148.662 350.974 146.753 350.118 145.075C349.279 143.396 348.078 142.072 346.515 141.101C344.968 140.13 343.142 139.645 341.036 139.645C338.716 139.645 336.709 140.221 335.014 141.373C333.336 142.508 332.044 143.989 331.139 145.815C330.234 147.641 329.782 149.599 329.782 151.689V155.045C329.782 157.908 330.276 160.335 331.263 162.326C332.266 164.301 333.657 165.806 335.434 166.843C337.211 167.863 339.276 168.373 341.628 168.373C343.159 168.373 344.541 168.159 345.775 167.731C347.025 167.287 348.103 166.629 349.008 165.757C349.913 164.868 350.612 163.766 351.106 162.45L356.733 164.029C356.14 165.938 355.145 167.616 353.746 169.064C352.348 170.495 350.62 171.614 348.564 172.42C346.507 173.21 344.195 173.605 341.628 173.605Z" fill="#A7B6CC"/>
<path d="M28.7095 81.2597C22.8603 81.2597 17.8255 80.0751 13.6052 77.7058C9.40957 75.3118 6.17646 71.9306 3.90587 67.5622C1.63529 63.1691 0.5 57.9739 0.5 51.9766C0.5 46.1274 1.63529 40.9939 3.90587 36.5761C6.17646 32.1584 9.37255 28.7155 13.4942 26.2474C17.6404 23.7794 22.5024 22.5454 28.0802 22.5454C31.8316 22.5454 35.3238 23.1501 38.557 24.3594C41.8147 25.5441 44.653 27.3334 47.0716 29.7274C49.515 32.1214 51.4154 35.1323 52.7728 38.7603C54.1302 42.3637 54.8089 46.584 54.8089 51.4213V55.7527H6.79347V45.9793H39.9637C39.9637 43.7087 39.4701 41.6973 38.4829 39.945C37.4957 38.1927 36.1259 36.8229 34.3736 35.8357C32.646 34.8238 30.6346 34.3179 28.3393 34.3179C25.9453 34.3179 23.8228 34.8732 21.9718 35.9838C20.1455 37.0697 18.714 38.5382 17.6775 40.3892C16.6409 42.2156 16.1103 44.2517 16.0856 46.4976V55.7897C16.0856 58.6033 16.6039 61.0343 17.6404 63.0827C18.7017 65.1312 20.1948 66.7107 22.1199 67.8213C24.045 68.9319 26.3279 69.4873 28.9687 69.4873C30.721 69.4873 32.3252 69.2405 33.7813 68.7469C35.2375 68.2532 36.4838 67.5128 37.5204 66.5256C38.557 65.5384 39.3467 64.3291 39.8897 62.8976L54.4757 63.8602C53.7353 67.3648 52.2175 70.4251 49.9222 73.0412C47.6516 75.6326 44.7147 77.6564 41.1114 79.1126C37.5327 80.544 33.3988 81.2597 28.7095 81.2597Z" fill="#535353"/>
<path d="M65.1007 80.1491V23.2858H80.8713V80.1491H65.1007ZM73.023 15.9558C70.6784 15.9558 68.667 15.1784 66.9887 13.6235C65.3351 12.044 64.5083 10.1559 64.5083 7.95938C64.5083 5.78752 65.3351 3.92416 66.9887 2.36931C68.667 0.789769 70.6784 0 73.023 0C75.3677 0 77.3668 0.789769 79.0203 2.36931C80.6986 3.92416 81.5377 5.78752 81.5377 7.95938C81.5377 10.1559 80.6986 12.044 79.0203 13.6235C77.3668 15.1784 75.3677 15.9558 73.023 15.9558Z" fill="#535353"/>
<path d="M109.275 47.275V80.1491H93.5044V23.2858H108.535V33.3183H109.201C110.46 30.0112 112.57 27.3951 115.532 25.47C118.493 23.5203 122.084 22.5454 126.305 22.5454C130.253 22.5454 133.696 23.4092 136.633 25.1368C139.57 26.8645 141.853 29.3325 143.482 32.5409C145.111 35.7247 145.925 39.5254 145.925 43.9432V80.1491H130.155V46.7567C130.179 43.2768 129.291 40.562 127.489 38.6123C125.688 36.6378 123.207 35.6506 120.048 35.6506C117.926 35.6506 116.05 36.1072 114.421 37.0204C112.817 37.9336 111.558 39.2663 110.645 41.0186C109.756 42.7462 109.3 44.8317 109.275 47.275Z" fill="#535353"/>
<path d="M158.651 80.1493V4.33154H174.681V35.6138H207.222V4.33154H223.215V80.1493H207.222V48.8301H174.681V80.1493H158.651Z" fill="#535353"/>
<path d="M252.35 81.2227C248.722 81.2227 245.489 80.5934 242.65 79.3347C239.812 78.0513 237.566 76.1633 235.913 73.6706C234.284 71.1532 233.469 68.0188 233.469 64.2674C233.469 61.1083 234.049 58.4552 235.209 56.308C236.369 54.1608 237.949 52.4332 239.948 51.1251C241.947 49.8171 244.218 48.8299 246.76 48.1635C249.326 47.4971 252.016 47.0282 254.83 46.7567C258.137 46.4112 260.803 46.0904 262.826 45.7942C264.85 45.4734 266.319 45.0044 267.232 44.3874C268.145 43.7704 268.602 42.8573 268.602 41.6479V41.4258C268.602 39.0812 267.861 37.2672 266.38 35.9838C264.924 34.7004 262.851 34.0587 260.161 34.0587C257.323 34.0587 255.064 34.6881 253.386 35.9468C251.708 37.1808 250.597 38.7357 250.054 40.6114L235.468 39.4267C236.209 35.9715 237.665 32.9852 239.837 30.4678C242.009 27.9257 244.81 25.976 248.24 24.6186C251.696 23.2365 255.694 22.5454 260.235 22.5454C263.394 22.5454 266.417 22.9156 269.305 23.656C272.217 24.3964 274.796 25.5441 277.042 27.0989C279.313 28.6538 281.102 30.6529 282.41 33.0962C283.718 35.5149 284.372 38.4148 284.372 41.796V80.1491H269.416V72.2638H268.972C268.059 74.0408 266.837 75.608 265.307 76.9654C263.777 78.2981 261.938 79.347 259.791 80.1121C257.644 80.8525 255.163 81.2227 252.35 81.2227ZM256.866 70.3387C259.186 70.3387 261.235 69.8821 263.012 68.969C264.788 68.0311 266.183 66.7724 267.195 65.1929C268.207 63.6134 268.713 61.824 268.713 59.8249V53.7906C268.219 54.1115 267.54 54.4076 266.677 54.6791C265.837 54.9259 264.887 55.1604 263.826 55.3825C262.765 55.5799 261.703 55.765 260.642 55.9378C259.581 56.0859 258.618 56.2216 257.755 56.345C255.904 56.6165 254.287 57.0484 252.905 57.6407C251.523 58.2331 250.449 59.0352 249.684 60.0471C248.919 61.0343 248.537 62.2683 248.537 63.7491C248.537 65.8963 249.314 67.5375 250.869 68.6728C252.448 69.7834 254.447 70.3387 256.866 70.3387Z" fill="#535353"/>
<path d="M296.608 80.1489V23.2856H311.897V33.2071H312.489C313.526 29.6778 315.266 27.0123 317.709 25.2107C320.152 23.3843 322.966 22.4712 326.15 22.4712C326.94 22.4712 327.791 22.5205 328.704 22.6193C329.617 22.718 330.419 22.8537 331.111 23.0265V37.0202C330.37 36.7981 329.346 36.6006 328.038 36.4279C326.73 36.2551 325.533 36.1687 324.447 36.1687C322.127 36.1687 320.054 36.6747 318.227 37.6866C316.426 38.6738 314.994 40.0559 313.933 41.8328C312.896 43.6098 312.378 45.6583 312.378 47.9782V80.1489H296.608Z" fill="#535353"/>
<path d="M375.729 55.9376V23.2856H391.5V80.1489H376.359V69.8202H375.766C374.483 73.1521 372.348 75.8299 369.362 77.8537C366.4 79.8774 362.785 80.8893 358.515 80.8893C354.714 80.8893 351.37 80.0255 348.482 78.2979C345.595 76.5703 343.336 74.1146 341.708 70.9309C340.103 67.7471 339.289 63.934 339.264 59.4916V23.2856H355.035V56.678C355.06 60.0345 355.96 62.6876 357.737 64.6374C359.514 66.5871 361.896 67.562 364.882 67.562C366.783 67.562 368.56 67.1301 370.213 66.2663C371.867 65.3778 373.2 64.0697 374.211 62.3421C375.248 60.6145 375.754 58.4797 375.729 55.9376Z" fill="#535353"/>
</g>
<defs>
<clipPath id="clip0_44_202">
<rect width="391" height="174" fill="white" transform="translate(0.5)"/>
</clipPath>
</defs>
</svg>
