<svg width="32" height="32" viewBox="0 0 32 32" fill="none" xmlns="http://www.w3.org/2000/svg">
<g clip-path="url(#clip0_44_150)">
<path d="M10.6669 16.0103C10.6617 13.0652 13.0453 10.6728 15.9898 10.6677C18.9349 10.6619 21.3278 13.0445 21.3335 15.9901C21.3392 18.9357 18.9556 21.3276 16.01 21.3333C13.0655 21.339 10.6726 18.9559 10.6669 16.0103ZM7.78515 16.016C7.79397 20.5537 11.4793 24.224 16.0158 24.2151C20.5528 24.2063 24.2252 20.522 24.2163 15.9844C24.2075 11.4483 20.5217 7.77591 15.9842 7.78479C11.4476 7.7936 7.77634 11.4794 7.78515 16.016ZM22.6042 7.44778C22.6062 8.50741 23.4677 9.36541 24.5274 9.36335C25.5875 9.36122 26.4455 8.50016 26.4439 7.44054C26.4418 6.38091 25.5803 5.52241 24.5202 5.52454C23.46 5.5266 22.6021 6.38816 22.6042 7.44778ZM9.56065 29.0353C8.00078 28.9674 7.15372 28.7082 6.58922 28.491C5.84165 28.2017 5.30822 27.8549 4.74678 27.2977C4.1864 26.7382 3.83853 26.2063 3.54665 25.4603C3.3274 24.8958 3.06353 24.0498 2.9904 22.4899C2.91109 20.8035 2.89297 20.2975 2.88522 16.0253C2.8769 11.7542 2.89247 11.2482 2.96609 9.56029C3.0329 8.00147 3.29372 7.15328 3.5104 6.58928C3.79965 5.84072 4.14547 5.30829 4.70378 4.74691C5.26309 4.18547 5.79497 3.83866 6.54147 3.54679C7.10553 3.32641 7.95153 3.0646 9.5109 2.99054C11.1983 2.91066 11.7037 2.8936 15.9748 2.88529C20.2469 2.87697 20.7528 2.89204 22.4408 2.96616C23.9996 3.03404 24.8477 3.29222 25.4113 3.51047C26.1593 3.79972 26.6927 4.14453 27.2537 4.70385C27.8145 5.26322 28.1624 5.79404 28.4543 6.54216C28.6745 7.1046 28.9364 7.95166 29.01 9.51054C29.0903 11.1979 29.1085 11.7039 29.1163 15.975C29.1245 20.2472 29.109 20.7532 29.0349 22.4402C28.967 24 28.7083 24.8477 28.4906 25.4127C28.2013 26.1597 27.8555 26.6932 27.2967 27.2546C26.7378 27.8139 26.206 28.1628 25.459 28.4547C24.8959 28.6745 24.0489 28.9368 22.4906 29.0109C20.8032 29.0902 20.2977 29.1084 16.0251 29.1162C11.754 29.1245 11.2486 29.1084 9.56065 29.0353ZM9.37403 0.111285C7.67159 0.19166 6.50884 0.464285 5.49272 0.862473C4.4409 1.27254 3.54928 1.82204 2.66234 2.71266C1.77428 3.60379 1.2289 4.49697 0.821966 5.54985C0.428029 6.56854 0.161029 7.73185 0.0858412 9.43535C0.0112162 11.142 -0.0059088 11.6863 0.0024037 16.031C0.0107162 20.3753 0.0298412 20.9207 0.111216 22.6278C0.192591 24.3297 0.464279 25.492 0.862404 26.5085C1.27297 27.5604 1.82197 28.4516 2.71309 29.3391C3.60372 30.2266 4.49747 30.7715 5.55084 31.179C6.56847 31.5723 7.73222 31.8404 9.43522 31.915C11.1418 31.9902 11.6866 32.0068 16.0303 31.9985C20.376 31.9902 20.9209 31.971 22.6275 31.8902C24.3299 31.8088 25.4916 31.5362 26.5087 31.139C27.5605 30.7274 28.4522 30.1794 29.3392 29.2883C30.2262 28.3976 30.7715 27.5039 31.1785 26.4505C31.5725 25.4329 31.8405 24.269 31.9145 22.5672C31.9892 20.8595 32.0069 20.3141 31.9985 15.9698C31.9902 11.6251 31.9706 11.0808 31.8897 9.37472C31.8088 7.67122 31.5362 6.50947 31.1385 5.49235C30.7275 4.44054 30.179 3.54985 29.2884 2.66185C28.3978 1.77485 27.504 1.22841 26.4507 0.822535C25.4325 0.428535 24.2692 0.160035 22.5663 0.0864102C20.8597 0.0107227 20.3148 -0.00583984 15.9696 0.00241016C11.6254 0.0107227 11.0806 0.0293477 9.37403 0.111285Z" fill="#A7B6CC"/>
</g>
<defs>
<clipPath id="clip0_44_150">
<rect width="32" height="32" fill="white"/>
</clipPath>
</defs>
</svg>
