<svg width="32" height="32" viewBox="0 0 32 32" fill="none" xmlns="http://www.w3.org/2000/svg">
<g clip-path="url(#clip0_110_48)">
<mask id="mask0_110_48" style="mask-type:luminance" maskUnits="userSpaceOnUse" x="0" y="0" width="32" height="32">
<path d="M32 0H0V32H32V0Z" fill="white"/>
</mask>
<g mask="url(#mask0_110_48)">
<path d="M11.8331 18.0077C11.8291 15.7068 13.6913 13.8378 15.9917 13.8338C18.2925 13.8292 20.162 15.6906 20.1664 17.9919C20.1709 20.2932 18.3087 22.1618 16.0075 22.1663C13.7071 22.1707 11.8376 20.3089 11.8331 18.0077ZM9.58178 18.0121C9.58867 21.5572 12.4678 24.4246 16.012 24.4177C19.5565 24.4108 22.4256 21.5325 22.4186 17.9874C22.4118 14.4436 19.5322 11.5746 15.9873 11.5815C12.4431 11.5884 9.57489 14.4679 9.58178 18.0121ZM21.1592 11.3182C21.1607 12.146 21.8338 12.8164 22.6617 12.8147C23.4899 12.8131 24.1602 12.1404 24.1589 11.3125C24.1573 10.4847 23.4843 9.81401 22.6561 9.81567C21.8278 9.81728 21.1575 10.4904 21.1592 11.3182ZM10.9689 28.1835C9.75024 28.1304 9.08847 27.9279 8.64745 27.7582C8.06341 27.5322 7.64667 27.2613 7.20805 26.826C6.77025 26.3889 6.49847 25.9733 6.27044 25.3905C6.09915 24.9495 5.89301 24.2886 5.83587 23.0699C5.77391 21.7524 5.75975 21.3571 5.7537 18.0194C5.7472 14.6826 5.75936 14.2873 5.81688 12.9686C5.86908 11.7508 6.07284 11.0881 6.24212 10.6475C6.4681 10.0627 6.73827 9.64673 7.17445 9.20815C7.61141 8.76952 8.02695 8.49858 8.61015 8.27055C9.05082 8.09838 9.71176 7.89384 10.93 7.83598C12.2483 7.77358 12.6431 7.76025 15.9799 7.75375C19.3175 7.74725 19.7128 7.75903 21.0315 7.81693C22.2493 7.86997 22.9119 8.07167 23.3522 8.24218C23.9366 8.46815 24.3533 8.73754 24.7916 9.17451C25.2297 9.61152 25.5015 10.0262 25.7296 10.6107C25.9016 11.0501 26.1062 11.7119 26.1637 12.9297C26.2264 14.248 26.2407 14.6433 26.2468 17.9801C26.2532 21.3178 26.2411 21.7131 26.1832 23.0311C26.1301 24.2496 25.928 24.9119 25.7579 25.3533C25.5319 25.9369 25.2618 26.3537 24.8252 26.7923C24.3886 27.2293 23.9731 27.5018 23.3895 27.7299C22.9496 27.9016 22.2879 28.1065 21.0704 28.1644C19.7521 28.2264 19.3572 28.2406 16.0192 28.2467C12.6824 28.2532 12.2876 28.2406 10.9689 28.1835ZM10.8231 5.58656C9.49306 5.64935 8.58466 5.86234 7.79081 6.17343C6.96908 6.49379 6.2725 6.92309 5.57957 7.61889C4.88578 8.31508 4.4597 9.01288 4.14178 9.83545C3.83402 10.6313 3.62542 11.5401 3.56668 12.871C3.50838 14.2043 3.495 14.6296 3.5015 18.0239C3.50799 21.4178 3.52293 21.8439 3.58651 23.1776C3.65008 24.5072 3.86234 25.4153 4.17337 26.2094C4.49413 27.0312 4.92303 27.7275 5.61922 28.4208C6.31503 29.1142 7.01327 29.5399 7.83622 29.8582C8.63124 30.1655 9.54042 30.375 10.8709 30.4332C12.2042 30.492 12.6298 30.505 16.0233 30.4985C19.4184 30.492 19.8441 30.477 21.1774 30.4139C22.5074 30.3503 23.415 30.1373 24.2096 29.827C25.0313 29.5054 25.7279 29.0773 26.4209 28.3811C27.1139 27.6853 27.5399 26.9871 27.8579 26.1641C28.1657 25.3691 28.375 24.4598 28.4329 23.1303C28.4912 21.7961 28.505 21.37 28.4985 17.976C28.492 14.5817 28.4767 14.1565 28.4135 12.8236C28.3503 11.4928 28.1373 10.5851 27.8266 9.79052C27.5055 8.9688 27.077 8.27294 26.3812 7.57919C25.6854 6.88622 24.9872 6.45932 24.1643 6.14222C23.3688 5.83441 22.46 5.62465 21.1296 5.56713C19.7963 5.508 19.3706 5.49506 15.9759 5.5015C12.582 5.508 12.1564 5.52255 10.8231 5.58656Z" fill="#535353"/>
</g>
</g>
<defs>
<clipPath id="clip0_110_48">
<rect width="32" height="32" fill="white"/>
</clipPath>
</defs>
</svg>
