<svg width="171" height="39" viewBox="0 0 171 39" fill="none" xmlns="http://www.w3.org/2000/svg">
<path d="M5.89816 37.2185C4.88327 37.2185 4.00781 36.9945 3.27178 36.5465C2.54033 36.0939 1.97574 35.463 1.57801 34.6539C1.18486 33.8401 0.988281 32.8938 0.988281 31.8149C0.988281 30.736 1.18486 29.7851 1.57801 28.9623C1.97574 28.1348 2.5289 27.4902 3.2375 27.0285C3.95066 26.5622 4.78269 26.329 5.73358 26.329C6.28217 26.329 6.8239 26.4205 7.35878 26.6033C7.89365 26.7862 8.38052 27.0833 8.81939 27.4948C9.25827 27.9016 9.60799 28.4411 9.86857 29.1131C10.1292 29.7851 10.2594 30.6126 10.2594 31.5955V32.2812H2.14032V30.8823H8.61367C8.61367 30.288 8.49481 29.7577 8.25709 29.2914C8.02394 28.8251 7.69021 28.4571 7.25591 28.1874C6.82619 27.9177 6.31874 27.7828 5.73358 27.7828C5.08899 27.7828 4.53125 27.9428 4.06038 28.2628C3.59408 28.5782 3.23521 28.9897 2.98378 29.4971C2.73234 30.0046 2.60662 30.5486 2.60662 31.1292V32.0618C2.60662 32.8572 2.74377 33.5315 3.01806 34.0847C3.29693 34.6333 3.68323 35.0516 4.17696 35.3396C4.67069 35.623 5.24442 35.7648 5.89816 35.7648C6.32331 35.7648 6.70733 35.7053 7.05019 35.5865C7.39763 35.463 7.69707 35.2802 7.94851 35.0379C8.19995 34.791 8.39424 34.4847 8.53138 34.119L10.0949 34.5579C9.93029 35.0882 9.65371 35.5545 9.26512 35.9568C8.87654 36.3545 8.39652 36.6654 7.82508 36.8894C7.25363 37.1088 6.61132 37.2185 5.89816 37.2185Z" fill="#313131"/>
<path d="M12.5088 36.9991V26.4662H14.1272V36.9991H12.5088ZM13.3317 24.7107C13.0163 24.7107 12.7443 24.6033 12.5157 24.3884C12.2917 24.1735 12.1797 23.9152 12.1797 23.6135C12.1797 23.3118 12.2917 23.0535 12.5157 22.8386C12.7443 22.6238 13.0163 22.5163 13.3317 22.5163C13.6471 22.5163 13.9169 22.6238 14.1409 22.8386C14.3695 23.0535 14.4837 23.3118 14.4837 23.6135C14.4837 23.9152 14.3695 24.1735 14.1409 24.3884C13.9169 24.6033 13.6471 24.7107 13.3317 24.7107Z" fill="#313131"/>
<path d="M18.4972 30.6629V36.9991H16.8788V26.4662H18.4423V28.1119H18.5795C18.8263 27.5771 19.2012 27.1473 19.7041 26.8228C20.207 26.4936 20.8561 26.329 21.6516 26.329C22.3647 26.329 22.9888 26.4753 23.5236 26.7679C24.0585 27.0559 24.4745 27.4948 24.7717 28.0845C25.0688 28.6697 25.2174 29.4103 25.2174 30.3063V36.9991H23.5991V30.416C23.5991 29.5886 23.3842 28.944 22.9545 28.4822C22.5247 28.0159 21.935 27.7828 21.1853 27.7828C20.6687 27.7828 20.207 27.8948 19.8001 28.1188C19.3978 28.3428 19.0801 28.6697 18.8469 29.0994C18.6138 29.5291 18.4972 30.0503 18.4972 30.6629Z" fill="#313131"/>
<path d="M124.943 28.8251L123.489 29.2365C123.398 28.9943 123.263 28.7588 123.084 28.5302C122.911 28.2971 122.673 28.1051 122.371 27.9542C122.07 27.8034 121.683 27.7279 121.212 27.7279C120.568 27.7279 120.031 27.8765 119.601 28.1737C119.176 28.4662 118.963 28.8388 118.963 29.2914C118.963 29.6937 119.109 30.0114 119.402 30.2446C119.695 30.4777 120.152 30.672 120.774 30.8275L122.337 31.2115C123.279 31.44 123.981 31.7898 124.442 32.2606C124.904 32.7269 125.135 33.3281 125.135 34.0641C125.135 34.6676 124.961 35.207 124.614 35.6825C124.271 36.1579 123.791 36.5328 123.174 36.8071C122.556 37.0814 121.839 37.2185 121.02 37.2185C119.946 37.2185 119.057 36.9854 118.353 36.5191C117.649 36.0528 117.203 35.3716 117.016 34.4756L118.552 34.0916C118.698 34.6584 118.975 35.0836 119.382 35.367C119.793 35.6505 120.33 35.7922 120.993 35.7922C121.747 35.7922 122.346 35.6322 122.79 35.3122C123.238 34.9876 123.462 34.599 123.462 34.1464C123.462 33.7807 123.334 33.4744 123.078 33.2275C122.822 32.9761 122.428 32.7887 121.898 32.6652L120.143 32.2538C119.178 32.0252 118.469 31.6709 118.017 31.1909C117.569 30.7063 117.345 30.1006 117.345 29.3737C117.345 28.7794 117.512 28.2537 117.845 27.7965C118.184 27.3393 118.643 26.9805 119.224 26.7199C119.809 26.4593 120.472 26.329 121.212 26.329C122.255 26.329 123.073 26.5576 123.667 27.0148C124.266 27.4719 124.691 28.0754 124.943 28.8251Z" fill="#313131"/>
<path d="M131.939 26.4662V27.8376H126.481V26.4662H131.939ZM128.072 23.9427H129.69V33.9818C129.69 34.439 129.756 34.7819 129.889 35.0104C130.026 35.2345 130.2 35.3853 130.41 35.463C130.625 35.5362 130.851 35.5728 131.089 35.5728C131.267 35.5728 131.413 35.5636 131.528 35.5453C131.642 35.5225 131.734 35.5042 131.802 35.4905L132.131 36.9442C132.022 36.9854 131.868 37.0265 131.672 37.0677C131.475 37.1134 131.226 37.1362 130.924 37.1362C130.467 37.1362 130.019 37.0379 129.58 36.8414C129.146 36.6448 128.785 36.3453 128.497 35.9431C128.213 35.5408 128.072 35.0333 128.072 34.4207V23.9427Z" fill="#313131"/>
<path d="M140.799 32.6927V26.4662H142.417V36.9991H140.799V35.2162H140.689C140.443 35.751 140.059 36.2059 139.537 36.5808C139.016 36.9511 138.358 37.1362 137.562 37.1362C136.904 37.1362 136.319 36.9922 135.807 36.7042C135.295 36.4116 134.893 35.9728 134.6 35.3876C134.307 34.7979 134.161 34.055 134.161 33.159V26.4662H135.78V33.0492C135.78 33.8173 135.994 34.4299 136.424 34.887C136.858 35.3442 137.412 35.5728 138.084 35.5728C138.486 35.5728 138.895 35.4699 139.311 35.2642C139.732 35.0585 140.084 34.743 140.367 34.3179C140.655 33.8927 140.799 33.351 140.799 32.6927Z" fill="#313131"/>
<path d="M149.146 37.2185C148.269 37.2185 147.494 36.9968 146.822 36.5534C146.15 36.1053 145.624 35.4745 145.245 34.6607C144.865 33.8424 144.675 32.8755 144.675 31.7601C144.675 30.6537 144.865 29.6937 145.245 28.88C145.624 28.0662 146.152 27.4376 146.829 26.9942C147.505 26.5507 148.287 26.329 149.174 26.329C149.86 26.329 150.401 26.4433 150.799 26.6719C151.201 26.8959 151.508 27.1519 151.718 27.4399C151.933 27.7234 152.1 27.9565 152.218 28.1394H152.356V22.9552H153.974V36.9991H152.411V35.3807H152.218C152.1 35.5728 151.93 35.815 151.711 36.1076C151.492 36.3956 151.178 36.6539 150.772 36.8825C150.365 37.1065 149.823 37.2185 149.146 37.2185ZM149.366 35.7648C150.015 35.7648 150.564 35.5956 151.012 35.2573C151.46 34.9144 151.8 34.4413 152.033 33.8378C152.266 33.2298 152.383 32.5281 152.383 31.7326C152.383 30.9463 152.269 30.2583 152.04 29.6686C151.812 29.0743 151.473 28.6125 151.025 28.2834C150.577 27.9496 150.024 27.7828 149.366 27.7828C148.68 27.7828 148.109 27.9588 147.651 28.3108C147.199 28.6582 146.858 29.1314 146.63 29.7303C146.406 30.3246 146.294 30.992 146.294 31.7326C146.294 32.4824 146.408 33.1635 146.637 33.7761C146.87 34.3841 147.213 34.8687 147.665 35.2299C148.122 35.5865 148.689 35.7648 149.366 35.7648Z" fill="#313131"/>
<path d="M156.95 36.9991V26.4662H158.569V36.9991H156.95ZM157.773 24.7107C157.458 24.7107 157.186 24.6033 156.957 24.3884C156.733 24.1735 156.621 23.9152 156.621 23.6135C156.621 23.3118 156.733 23.0535 156.957 22.8386C157.186 22.6238 157.458 22.5163 157.773 22.5163C158.089 22.5163 158.358 22.6238 158.582 22.8386C158.811 23.0535 158.925 23.3118 158.925 23.6135C158.925 23.9152 158.811 24.1735 158.582 24.3884C158.358 24.6033 158.089 24.7107 157.773 24.7107Z" fill="#313131"/>
<path d="M165.599 37.2185C164.648 37.2185 163.814 36.9922 163.096 36.5396C162.383 36.0871 161.825 35.4539 161.423 34.6402C161.025 33.8264 160.827 32.8755 160.827 31.7875C160.827 30.6903 161.025 29.7326 161.423 28.9142C161.825 28.0959 162.383 27.4605 163.096 27.0079C163.814 26.5553 164.648 26.329 165.599 26.329C166.55 26.329 167.382 26.5553 168.095 27.0079C168.813 27.4605 169.371 28.0959 169.769 28.9142C170.171 29.7326 170.372 30.6903 170.372 31.7875C170.372 32.8755 170.171 33.8264 169.769 34.6402C169.371 35.4539 168.813 36.0871 168.095 36.5396C167.382 36.9922 166.55 37.2185 165.599 37.2185ZM165.599 35.7648C166.322 35.7648 166.916 35.5796 167.382 35.2093C167.848 34.839 168.194 34.3521 168.418 33.7487C168.642 33.1452 168.754 32.4915 168.754 31.7875C168.754 31.0835 168.642 30.4274 168.418 29.8194C168.194 29.2114 167.848 28.72 167.382 28.3451C166.916 27.9702 166.322 27.7828 165.599 27.7828C164.877 27.7828 164.283 27.9702 163.816 28.3451C163.35 28.72 163.005 29.2114 162.781 29.8194C162.557 30.4274 162.445 31.0835 162.445 31.7875C162.445 32.4915 162.557 33.1452 162.781 33.7487C163.005 34.3521 163.35 34.839 163.816 35.2093C164.283 35.5796 164.877 35.7648 165.599 35.7648Z" fill="#313131"/>
<path d="M112.252 13.6308V15.4405L92.2794 15.4405V13.6308L112.252 13.6308ZM104.042 15.0212V18.7067H102.497V15.0212H104.042ZM109.052 -0.00781243V11.7549H107.551V-0.0078125L109.052 -0.00781243ZM105.918 5.97288C105.918 6.91449 105.719 7.74575 105.322 8.46667C104.925 9.2023 104.381 9.7761 103.689 10.1881C103.012 10.6147 102.225 10.828 101.328 10.828C100.43 10.828 99.6358 10.6147 98.9443 10.1881C98.2528 9.7761 97.7084 9.2023 97.3112 8.46667C96.9286 7.74575 96.7374 6.91449 96.7374 5.97288C96.7374 5.03127 96.9286 4.19265 97.3112 3.45701C97.7084 2.7361 98.2528 2.1623 98.9443 1.73564C99.6358 1.30897 100.43 1.09564 101.328 1.09564C102.225 1.09564 103.012 1.30897 103.689 1.73564C104.381 2.1623 104.925 2.7361 105.322 3.45702C105.719 4.19265 105.918 5.03127 105.918 5.97288ZM104.395 5.97288C104.395 5.36966 104.263 4.83265 103.998 4.36184C103.733 3.89104 103.373 3.51587 102.917 3.23633C102.461 2.9715 101.931 2.83908 101.328 2.83908C100.725 2.83908 100.187 2.9715 99.7167 3.23633C99.2606 3.51587 98.9001 3.89104 98.6353 4.36184C98.3852 4.83265 98.2601 5.36966 98.2601 5.97288C98.2601 6.56138 98.3852 7.09104 98.6353 7.56184C98.9001 8.03265 99.2606 8.40046 99.7167 8.66529C100.187 8.94483 100.725 9.0846 101.328 9.0846C101.931 9.0846 102.461 8.94483 102.917 8.66529C103.373 8.40046 103.733 8.03265 103.998 7.56184C104.263 7.09104 104.395 6.56138 104.395 5.97288ZM112.009 5.02391V6.85564H108.39V5.02391H112.009Z" fill="#B5B5B5"/>
<path d="M111.457 22.3022V36.0512H106.227V24.2001H102.806V22.3684H107.639V34.1974H109.979V22.3022H111.457ZM103.689 22.3684V36.4925H102.188V22.3684H103.689ZM100.136 20.1394V38.236H98.6353V20.1394H100.136ZM99.5622 28.2387V30.0705H92.2574V28.2387H99.5622Z" fill="#B5B5B5"/>
<path d="M29.1701 37.0336V20.9834H32.0776V27.7781H39.5149V20.9834H42.4303V37.0336H39.5149V30.2154H32.0776V37.0336H29.1701Z" fill="#313131"/>
<path d="M47.4109 37.0336H44.3074L49.9579 20.9834H53.5472L59.2056 37.0336H56.1021L51.8153 24.2749H51.6899L47.4109 37.0336ZM47.5128 30.7405H55.9767V33.0759H47.5128V30.7405Z" fill="#313131"/>
<path d="M61.0768 37.0336V20.9834H67.0956C68.3287 20.9834 69.3631 21.1976 70.1991 21.626C71.0403 22.0545 71.675 22.6553 72.1035 23.4286C72.5371 24.1966 72.7539 25.0926 72.7539 26.1166C72.7539 27.1459 72.5345 28.0393 72.0956 28.7969C71.662 29.5492 71.022 30.1318 70.1756 30.5445C69.3292 30.9521 68.2895 31.1558 67.0564 31.1558H62.7696V28.742H66.6646C67.3856 28.742 67.976 28.6428 68.4358 28.4442C68.8955 28.2405 69.2351 27.9453 69.4546 27.5586C69.6792 27.1668 69.7916 26.6861 69.7916 26.1166C69.7916 25.5472 69.6792 25.0613 69.4546 24.659C69.2299 24.2514 68.8877 23.9432 68.4279 23.7342C67.9682 23.52 67.3752 23.4129 66.6489 23.4129H63.9843V37.0336H61.0768ZM69.3684 29.7608L73.3417 37.0336H70.0972L66.1944 29.7608H69.3684Z" fill="#313131"/>
<path d="M85.3051 20.9834H88.2126V31.4693C88.2126 32.6187 87.9409 33.6297 87.3975 34.5022C86.8594 35.3747 86.1018 36.0566 85.1248 36.5477C84.1478 37.0336 83.0062 37.2765 81.7001 37.2765C80.3887 37.2765 79.2445 37.0336 78.2674 36.5477C77.2904 36.0566 76.5329 35.3747 75.9947 34.5022C75.4566 33.6297 75.1875 32.6187 75.1875 31.4693V20.9834H78.095V31.2264C78.095 31.8951 78.2413 32.4907 78.5339 33.0132C78.8317 33.5357 79.2497 33.9458 79.7878 34.2436C80.326 34.5362 80.9634 34.6825 81.7001 34.6825C82.4367 34.6825 83.0741 34.5362 83.6123 34.2436C84.1556 33.9458 84.5736 33.5357 84.8662 33.0132C85.1588 32.4907 85.3051 31.8951 85.3051 31.2264V20.9834Z" fill="#313131"/>
</svg>
