<svg width="32" height="32" viewBox="0 0 32 32" fill="none" xmlns="http://www.w3.org/2000/svg">
<path d="M7.65137 30C6.91046 30 6.28333 29.7421 5.77 29.2263C5.25667 28.7105 5 28.0804 5 27.3359V10.5588C5 9.81433 5.25667 9.18421 5.77 8.66842C6.28333 8.15263 6.91046 7.89474 7.65137 7.89474H10.5V7.52632C10.5 5.99982 11.0368 4.69709 12.1104 3.6181C13.1842 2.53937 14.4808 2 16 2C17.5192 2 18.8158 2.53937 19.8896 3.6181C20.9632 4.69709 21.5 5.99982 21.5 7.52632V7.89474H24.3486C25.0895 7.89474 25.7167 8.15263 26.23 8.66842C26.7433 9.18421 27 9.81433 27 10.5588V27.3359C27 28.0804 26.7433 28.7105 26.23 29.2263C25.7167 29.7421 25.0895 30 24.3486 30H7.65137ZM7.65137 27.7895H24.3486C24.4616 27.7895 24.565 27.7422 24.6588 27.6476C24.7529 27.5533 24.8 27.4494 24.8 27.3359V10.5588C24.8 10.4453 24.7529 10.3414 24.6588 10.2471C24.565 10.1525 24.4616 10.1053 24.3486 10.1053H21.5V13.4211C21.5 13.7347 21.3946 13.9973 21.1839 14.2087C20.9735 14.4205 20.7122 14.5263 20.4 14.5263C20.0878 14.5263 19.8265 14.4205 19.6161 14.2087C19.4054 13.9973 19.3 13.7347 19.3 13.4211V10.1053H12.7V13.4211C12.7 13.7347 12.5946 13.9973 12.3839 14.2087C12.1735 14.4205 11.9122 14.5263 11.6 14.5263C11.2878 14.5263 11.0265 14.4205 10.8161 14.2087C10.6054 13.9973 10.5 13.7347 10.5 13.4211V10.1053H7.65137C7.53843 10.1053 7.43503 10.1525 7.34117 10.2471C7.24706 10.3414 7.2 10.4453 7.2 10.5588V27.3359C7.2 27.4494 7.24706 27.5533 7.34117 27.6476C7.43503 27.7422 7.53843 27.7895 7.65137 27.7895ZM12.7 7.89474H19.3V7.52632C19.3 6.60256 18.9799 5.81893 18.3397 5.17542C17.6995 4.53216 16.9196 4.21053 16 4.21053C15.0804 4.21053 14.3005 4.53216 13.6603 5.17542C13.0201 5.81893 12.7 6.60256 12.7 7.52632V7.89474Z" fill="#535353"/>
</svg>
